<svg width="76" height="19" viewBox="0 0 76 19" fill="none" xmlns="http://www.w3.org/2000/svg">
<path d="M24.4345 11.369C25.3869 10.0595 26.5774 8.86905 27.7679 7.94643H32.1726V7.41072H28.8393V7.17262C30.4762 6.10119 31.9643 5.625 32.6786 6.01191C33.5714 6.51786 33.1845 8.92857 28.3929 10.8631C26.7262 11.5179 25.2679 11.875 23.9881 11.9643C23.9881 11.994 24.256 11.6369 24.4345 11.369ZM27.6488 13.006C25.3571 12.6488 23.9286 15.506 24.0476 15.8929C24.0476 15.8631 25.3869 12.9762 27.6191 13.2738C29.1071 13.4821 28.6012 15.9524 26.6667 17.3512C24.8512 18.6905 23.2143 18.0655 22.7976 16.9643C22.4405 16.0417 22.5893 14.3155 23.8393 12.2321C23.8393 12.2321 25.9524 12.1726 28.5417 11.131C30.9821 10.1488 32.4107 8.95833 33.006 7.91667H33.75L35.4762 5.625L31.6071 0.297619H30.506L34.4345 5.50595L33.3333 7.08333C33.4524 6.42857 33.2143 5.92262 32.7083 5.65476C32.0833 5.29762 30.5952 5.53571 28.8095 6.4881V0.297619H26.1905V7.91667H26.6369C25.5952 8.75 24.5238 9.82143 23.5417 11.1607C23.2143 11.6071 23.006 11.994 23.006 11.994C21.6667 12.0238 20.3869 11.6667 19.494 10.8929C18.5119 10.0595 18.5417 8.86905 19.0774 7.91667H24.0774V7.38095H20.8036V6.42857C22.381 5.65476 24.1071 5.53571 25.0298 5.50595V7.91667H25.8036L25.7738 0.327381H25V5.44643C24.1369 5.38691 22.4702 5.41667 20.7738 6.19048V0.297619H18.1548V7.91667H18.7798C18.2143 8.9881 18.3036 10.2381 19.3155 11.131C20.2976 11.9643 21.5179 12.2321 22.8274 12.2619C21.9345 13.9881 21.6369 15.7738 22.2321 16.994C22.8869 18.3333 24.7619 18.869 26.6071 17.619C29.1071 16.0119 29.3452 13.2738 27.6488 13.006ZM42.5595 11.9048C43.4524 11.9345 43.5119 10.9524 42.8274 10.9524C42.0833 10.9524 41.8155 11.875 42.5595 11.9048ZM52.5893 16.131C52.5893 16.131 52.3512 16.0417 52.2619 16.1905C52.1726 16.3393 52.381 16.3988 52.381 16.3988C52.0238 17.0833 51.0714 18.0952 50.2083 18.0952C49.1369 18.0952 49.9405 16.3095 50.4762 15.4167C50.9524 14.6429 51.6964 13.6905 52.381 13.7202C53.4226 13.7798 52.9167 15.4464 52.5893 16.131ZM29.8214 18.0655C28.8988 18.0655 29.5833 16.5179 30.4167 15.4464C31.5179 14.0774 32.5893 13.5714 33.0952 13.7798C33.3929 13.8988 33.4821 14.2857 33.4524 14.4048C33.4226 14.6726 32.7083 15.7738 32.1726 16.369C31.3095 17.2917 30.3571 18.0655 29.8214 18.0655ZM53.8393 15.744C53.4226 16.131 52.7679 16.1607 52.7679 16.1607C53.0357 15.7738 53.7202 13.5714 52.381 13.5714C50.8036 13.5714 50.0595 14.6429 49.4941 15.4762C49.4643 15.5357 49.4048 15.625 49.375 15.6845L49.3452 15.7143C48.7798 16.3095 47.381 18.006 46.6369 18.0357C45.8333 18.0655 46.3988 16.9048 47.5 15.6845C48.1548 14.9405 48.3929 13.5714 47.5893 13.5714C46.7262 13.5714 45.5357 14.881 45.5357 14.881C45.6845 14.4643 45.9524 13.5119 45.2381 13.5119C44.4643 13.5119 43.1548 14.7917 42.5298 15.4167C42.381 15.5655 42.2619 15.6845 42.2024 15.744L42.1726 15.7738C41.6369 16.3393 40.2083 18.006 39.5833 18.006C39.1667 18.006 39.1071 17.5595 39.5833 16.875L41.9345 13.631H40.9226C40.9226 13.631 39.7917 14.7917 38.9583 15.625C38.8988 15.6845 38.8691 15.7143 38.8393 15.7738C38.8095 15.8036 38.7798 15.8333 38.75 15.8631C38.3333 16.3095 38.0357 16.2798 38.0357 16.2798C38.5119 14.881 37.4702 13.8393 37.4702 13.8393C37.7679 13.5417 38.1548 13.4524 38.2143 13.2738C38.244 13.125 38.1548 12.9762 38.006 12.9762C37.8274 13.006 37.6488 13.3631 37.381 13.6012C37.2024 13.7798 36.0417 15.0595 35.506 15.5952C35.4464 15.6548 35.2679 15.8631 35.2679 15.8631C34.8214 16.369 33.3631 17.9464 32.7381 18.006C32.0833 18.0655 32.3214 17.4405 32.619 17.0238L34.9107 13.6607H34.0179L33.631 14.1964C33.631 14.1964 33.5119 13.6012 32.8274 13.5417C32.2321 13.4821 30.625 13.7202 29.5536 15.2381C28.6012 16.5476 28.75 18.3929 29.7917 18.3929C30.744 18.3929 31.9048 17.0238 31.9048 17.0238C31.4583 17.7679 31.6667 18.4226 32.4107 18.4226C33.6012 18.4226 35.2381 16.3095 35.5357 15.9821C35.5357 15.9821 35.7143 15.7738 35.7738 15.7143C36.3095 15.1488 37.2917 14.0774 37.2917 14.0774C37.7976 14.6131 37.5 15.5952 37.1429 16.3988C36.6667 17.4405 36.0119 18.1548 35.4762 18.1548C35.0298 18.1548 34.881 17.7381 34.881 17.7381C35.2976 18.006 35.625 17.5298 35.2976 17.2024C35.0298 16.9345 34.6429 17.1429 34.6429 17.6488C34.6726 18.006 35.1488 18.3036 35.4167 18.3036C36.7262 18.3333 37.7679 17.3512 37.9167 16.6071C37.9167 16.6071 38.3631 16.6369 38.9881 15.9524L39.0476 15.8929C39.494 15.4762 40.0893 14.9107 40.0893 14.9107C38.4226 16.7857 38.3929 18.3929 39.4345 18.3929C40.2976 18.3929 41.9048 16.4881 42.381 15.9821C42.4702 15.8929 42.5893 15.744 42.7679 15.5952C43.4226 14.9702 44.5536 13.8988 45.0298 13.8988C45.4762 13.8988 45 14.4345 44.8512 14.6726C44.8512 14.7024 42.3512 18.2738 42.3512 18.2738H43.3929C43.3929 18.2738 44.9107 16.0417 44.9702 15.9821C45.8929 14.7024 47.0238 13.7798 47.5893 13.7798C48.3929 13.7798 46.8452 15.119 46.3095 16.0417C45.2679 17.8274 46.1012 18.3929 46.5774 18.3929C47.3512 18.3929 48.5119 17.1131 49.2262 16.3393C49.0179 17.2619 49.2262 18.3631 50.119 18.3631C51.369 18.3631 52.381 17.0238 52.6488 16.4881C52.6488 16.4881 53.5417 16.5179 54.0476 15.9524C54.1667 15.7143 53.9881 15.625 53.8393 15.744ZM67.6488 7.94643H68.3631V0.357143H67.6488V7.94643ZM43.3631 7.55953L40.3571 0.297619H39.6726L42.9167 8.21429L43.3631 7.55953ZM51.9345 6.69643V1.57738C51.3095 2.2619 50.9226 3.15476 50.9226 4.13691C50.8929 5.14881 51.2798 6.04167 51.9345 6.69643ZM57.6488 4.34524C57.5 5.8631 56.6071 6.81548 55.2083 7.23214V1.16071C56.9345 1.54762 57.7679 2.97619 57.6488 4.34524ZM54.7619 0.357143C53.8691 0.357143 53.0655 0.654762 52.4107 1.16071V7.14286C53.0655 7.64881 53.8691 7.94643 54.7619 7.94643C56.875 7.94643 58.6012 6.25 58.6012 4.16667C58.6012 2.05357 56.875 0.357143 54.7619 0.357143ZM66.0417 4.34524C65.8929 5.8631 65 6.81548 63.6012 7.23214V1.16071C65.3274 1.54762 66.1607 2.97619 66.0417 4.34524ZM63.1548 0.357143C62.2619 0.357143 61.4583 0.654762 60.8036 1.16071V7.14286C61.4583 7.64881 62.2619 7.94643 63.1548 7.94643C65.2679 7.94643 66.9941 6.25 66.9941 4.16667C66.9941 2.05357 65.2679 0.357143 63.1548 0.357143ZM45.5952 4.43452L47.2619 8.39286L47.6488 7.64881L45.5357 2.55952L44.6429 3.86905L43.1845 0.297619H40.9226L43.7202 7.02381L45.5952 4.43452ZM60.3274 6.69643V1.57738C59.7024 2.2619 59.3155 3.15476 59.3155 4.13691C59.2857 5.14881 59.6726 6.04167 60.3274 6.69643ZM51.5774 0.327381L50.5357 0.297619L48.75 3.54167L47.2917 0L45.8929 1.99405L47.9762 6.99405L51.5774 0.327381ZM72.0833 7.14286V1.25C72.0833 1.25 74.5536 1.4881 74.7917 3.9881C74.9405 5.38691 73.7202 7.14286 72.0833 7.14286ZM71.3095 0.357143H68.9286V7.94643H71.3095C73.7202 7.94643 75.6845 6.22024 75.6845 4.13691C75.6548 2.05357 73.6905 0.327381 71.3095 0.357143ZM39.5238 0.357143H38.3929L36.8155 2.61905L35.3571 0.357143H32.3214L35.8631 5.20833L39.5238 0.357143ZM6.93452 0.357143V2.88691H3.86905V0.327381H1.07143V7.94643H3.86905V3.48214H6.93452L6.96429 7.97619H7.76786V0.386905L6.93452 0.357143ZM0 7.97619H0.565476V0.357143H0V7.97619ZM16.9643 0.357143V7.94643H17.7381L17.7083 0.357143H16.9643ZM15.2083 4.34524C15.0595 5.8631 14.1667 6.81548 12.7679 7.23214V1.16071C14.494 1.54762 15.3274 2.97619 15.2083 4.34524ZM12.3214 0.357143C11.4286 0.357143 10.625 0.654762 9.97024 1.16071V7.14286C10.625 7.64881 11.4286 7.94643 12.3214 7.94643C14.4345 7.94643 16.1607 6.25 16.1607 4.16667C16.1607 2.05357 14.4345 0.357143 12.3214 0.357143ZM9.49405 6.69643V1.57738C8.86905 2.2619 8.48214 3.15476 8.48214 4.13691C8.45238 5.14881 8.83929 6.04167 9.49405 6.69643Z" fill="#111111"/>
</svg>
