<svg width="149" height="40" viewBox="0 0 149 40" fill="none" xmlns="http://www.w3.org/2000/svg">
<path d="M45.7104 36.5438L44.054 34.8861V32.1592H46.5966V33.9826H49.9924V29.8384H45.5199L44.0705 28.3962V22.3788L45.4537 21.0195H51.1105L52.5434 22.4203V25.3875H50.0587V23.5641H46.5718V27.269H51.0443L52.4937 28.7195V34.6457L50.6384 36.5438H45.7104ZM98.3781 36.5438L96.7216 34.8861V32.1592H99.2477V33.9826H102.644V29.8384H98.171L96.7216 28.3962V22.3788L98.1048 21.0195H103.762L105.186 22.4286V25.3958H102.652V23.5724H99.2643V27.269H103.737L105.186 28.7195V34.6457L103.323 36.5438H98.3781ZM57.7199 27.4845H60.9003V23.5724H57.7199V27.4845ZM54.0259 36.6018V33.9826H55.1938V23.5724H54.0259V21.0444H61.977L63.443 22.5197V28.4377L61.8694 29.9959H57.7282V33.9826H58.8877V36.5355L54.0259 36.6018ZM67.2778 34.0324H70.4002V23.5724H67.2446L67.2778 34.0324ZM66.259 36.5686L64.6936 34.911V22.7352L66.3501 21.0776H71.3196L72.976 22.7352V34.9027L71.3196 36.5604L66.259 36.5686ZM77.9372 27.8161H81.1176V23.5724H77.9372V27.8161ZM81.8547 36.5686L78.8317 30.3606H77.9455V33.9826H79.1133V36.5355H74.2432V33.9826H75.4111V23.5724H74.2432V21.0444H82.3268L83.652 22.3042V29.0096L82.3268 30.3606H81.4986L83.3373 33.9826H84.4223V36.5355L81.8547 36.5686ZM87.6524 36.5686V33.9826H88.8119V23.5724H87.2383V26.5811H84.8116V21.0444H95.3799V26.5811H92.8952V23.5724H91.3215V33.9826H92.481V36.5355L87.6524 36.5686ZM110.073 26.7966H113.262V23.5641H110.073V26.7966ZM110.073 34.0241H113.262V29.3577H110.073V34.0241ZM106.371 36.5686V34.0241H107.53V23.5641H106.371V21.0278H114.231L115.796 22.5612V26.7468L114.67 27.8741L115.796 29.0344V34.9607L114.197 36.5686H106.371ZM119.622 34.0241H122.811V23.5641H119.622V34.0241ZM118.645 36.5686L117.08 34.911V22.7021L118.736 21.0444H123.706L125.362 22.7021V34.8861L123.706 36.5438L118.645 36.5686ZM129.205 34.0241H132.394V23.5641H129.205V34.0241ZM128.236 36.5686L126.671 34.911V22.7021L128.327 21.0444H133.297L134.953 22.7021V34.8861L133.297 36.5438L128.236 36.5686ZM143.881 36.5686V34.0241H145.049L142.565 29.3245L139.972 32.5239V34.0324H141.132V36.5686H136.27V34.0241H137.43V23.5641H136.27V21.0278H141.132V23.5641H139.972V29.0096L144.287 23.5724H142.995V21.0278H148.42V23.5641H147.36L144.18 27.4099L147.749 34.0407H148.992V36.5769L143.881 36.5686Z" fill="#F7F5F5"/>
<path d="M80.4882 18.4832L78.8317 16.8255V14.0904H81.3164V15.9553H84.7039V11.7364H80.2315L78.7903 10.286V4.31829L80.1735 2.95898H85.8303L87.2549 4.36802V7.32699H84.7288V5.51182H81.333V9.20847H85.8055L87.2549 10.6507V16.5769L85.3997 18.4832H80.4882ZM58.954 12.0348H61.4387L60.1881 7.67511L58.954 12.0348ZM61.066 18.4998V15.947H62.5072L62.1179 14.3307H58.3494L57.8939 15.947H59.1694V18.4998H54.3076V15.947H55.4092L59.0368 2.95898H61.3311L64.9587 15.947H66.0603V18.4998H61.066ZM91.3961 18.4998V15.947H92.5639V5.51182H90.9903V8.51224H88.5718V2.98385H99.1318V8.51224H96.6471V5.51182H95.0652V15.947H96.233V18.4998H91.3961ZM102.991 15.9304H106.164V5.51182H102.991V15.9304ZM102.006 18.4998L100.457 16.8421V4.6664L102.114 3.00872H107.083L108.698 4.6664V16.8338L107.042 18.4915L102.006 18.4998ZM112.972 15.9304H116.144V5.51182H112.972V15.9304ZM111.978 18.4998L110.421 16.8421V4.6664L112.077 3.00872H117.047L118.703 4.6664V16.8338L117.047 18.4915L111.978 18.4998ZM120.161 18.4998V15.9553H121.329V5.51182H120.095V2.98385H124.948V5.51182H123.788V15.9553H126.961V12.3415H129.445V18.4998H120.161ZM47.7231 9.1836H50.8953V5.51182H47.7231V9.1836ZM47.7231 15.9304H50.8953V11.7364H47.7231V15.9304ZM44.0292 18.4998V15.947H45.1887V5.51182H44.0292V2.98385H51.8726L53.4462 4.51721V9.11729L52.3198 10.2362L53.4462 11.4049V16.8753L51.8395 18.4749L44.0292 18.4998ZM70.831 9.74722H74.0114V5.51182H70.831V9.74722ZM67.0873 18.5247V15.947H68.2551V5.51182H67.0873V2.98385H75.1626L76.4795 4.2354V10.9159L75.1626 12.3001H74.3344L76.1979 15.947H77.2747V18.4998H74.7071L71.6592 12.3166H70.7895V15.9718H71.9574V18.5247H67.0873Z" fill="#F7F5F5"/>
<path d="M20.0102 3.05843L18.7182 4.0116L19.2151 2.48653L17.9231 1.52507H19.4967L19.9937 0L20.4906 1.52507H22.1471L20.8053 2.48653L21.3023 4.0116L20.0102 3.05843ZM24.3502 3.62205L22.8677 4.19395L23.7456 2.85951L22.7517 1.60796L24.2757 2.02238L25.1536 0.679652L25.2281 2.28761L26.7935 2.71032L25.311 3.31538L25.3855 4.92333L24.3502 3.62205ZM14.6598 3.31538L13.169 2.74347L14.7261 2.32905L14.8089 0.721094L15.6785 2.05553L17.2522 1.64111L16.2169 2.8678L17.0948 4.20224L15.6123 3.63034L14.577 4.89018L14.6598 3.31538ZM10.5186 5.26316L8.91184 5.11397L10.3281 4.28512L9.97198 2.68545L11.1812 3.74637L12.5975 2.91753L11.9515 4.39287L13.1359 5.46208L11.5291 5.31289L10.883 6.79652L10.5186 5.26316ZM28.4168 5.3792L26.8101 5.52839L27.9944 4.45918L27.3319 2.98384L28.7399 3.81268L29.9325 2.74347L29.5847 4.30999L31.0009 5.13883L29.4024 5.32947L29.0546 6.88769L28.4168 5.3792ZM7.02346 8.1724L5.41668 8.43763L6.56793 7.29383L5.83908 5.84335L7.28849 6.57273L8.43146 5.42064L8.16643 7.02859L9.61584 7.75798L8.01734 8.02321L7.75231 9.62288L7.02346 8.1724ZM31.9451 8.02321L30.3466 7.74969L31.7546 7.02859L31.473 5.42064L32.6657 6.63075L34.1151 5.90966L33.3946 7.36013L34.5375 8.50394L32.939 8.23871L32.2102 9.68918L31.9451 8.02321ZM4.38966 11.9105L2.94024 12.557L3.76848 11.1397L2.6338 9.94613L4.24058 10.3025L5.06882 8.89349L5.22618 10.4932L6.79155 10.833L5.34213 11.4878L5.49122 13.0874L4.38966 11.9105ZM34.6618 11.6038L33.2041 10.8993L34.786 10.5429L34.9434 8.97638L35.7716 10.3937L37.2707 10.0539L36.194 11.2391L37.0222 12.6482L35.6142 12.0017L34.5458 13.1869L34.6618 11.6038ZM2.0209 15.6651L0.687437 14.7866L2.29422 14.712L2.70834 13.1455L3.31295 14.6374L4.91973 14.5545L3.62768 15.5906L4.19917 17.0742L2.8657 16.1956L1.60678 17.2317L2.0209 15.6651ZM37.0968 16.2702L35.7633 17.1488L36.3348 15.6651L35.0759 14.6291L36.6744 14.7037L37.2707 13.2615L37.6848 14.828L39.2916 14.9026L37.9416 15.748L38.364 17.3145L37.0968 16.2702ZM1.52396 20.4724L0 19.9751L1.52396 19.4861V17.8782L2.48471 19.1712L4.00867 18.6739L3.0562 19.9668L4.00867 21.2681L2.48471 20.7791L1.52396 22.0721V20.4724ZM37.486 20.8206L35.9538 21.3179L36.9063 20.0166L35.9538 18.7236L37.486 19.2209L38.4385 17.9279V19.5276L39.9625 20.0249L38.4385 20.5056V22.1136L37.486 20.8206ZM2.29422 25.2549L0.687437 25.172L2.0209 24.2934L1.60678 22.7269L2.8657 23.7215L4.19917 22.8429L3.62768 24.3763L4.8866 25.4041L3.31295 25.3295L2.74147 26.8131L2.29422 25.2549ZM36.6827 25.3626L35.0759 25.4372L36.3348 24.4095L35.7633 22.8844L37.1382 23.763L38.3971 22.7269L37.9747 24.2934L39.3165 25.172L37.66 25.2797L37.2707 26.8462L36.6827 25.3626ZM4.24058 29.6477L2.67521 29.9876L3.74364 28.8023L2.94024 27.3518L4.38966 27.9983L5.45809 26.8131L5.30901 28.4211L6.75842 29.0676L5.19305 29.3742L5.03569 31.0319L4.24058 29.6477ZM34.7363 29.4903L33.1709 29.1504L34.6203 28.5039L34.463 26.896L35.5314 28.0812L36.9891 27.4347L36.1609 28.8438L37.2707 30.029L35.7053 29.6809L34.8771 31.0899L34.7363 29.4903ZM7.25536 33.3858L5.79767 34.1152L6.52652 32.6647L5.38355 31.4961L6.98205 31.7613L7.7109 30.3108L7.97593 31.9105L9.58271 32.1757L8.1333 32.9051L8.39833 34.5048L7.25536 33.3858ZM31.7546 32.9631L30.3052 32.242L31.912 31.9685L32.1853 30.3688L32.9059 31.7862L34.5044 31.4961L33.3531 32.6564L34.082 34.1484L32.6326 33.4273L31.473 34.5711L31.7546 32.9631ZM10.3033 35.7149L8.88699 34.886L10.4938 34.7286L10.8334 33.162L11.4877 34.6125L13.0862 34.4633L11.9018 35.5325L12.5561 36.983L11.1481 36.1542L9.93886 37.298L10.3033 35.7149ZM28.773 36.2453L27.365 37.0742L28.011 35.6403L26.8266 34.5711L28.4251 34.7286L29.0712 33.2698L29.4356 34.8114L31.0341 34.9689L29.6178 35.7978L29.9656 37.3726L28.773 36.2453ZM14.6929 37.7041L13.1276 37.298L14.6184 36.7261L14.5439 35.1181L15.5709 36.378L17.0617 35.8061L16.1838 37.1405L17.2108 38.4003L15.6537 37.9859L14.7675 39.3286L14.6929 37.7041ZM24.2757 37.9362L22.7103 38.3506L23.7042 37.0908L22.8262 35.748L24.3171 36.3199L25.3441 35.0601L25.2695 36.668L26.7935 37.24L25.2281 37.7041L25.1536 39.3121L24.2757 37.9362ZM19.4636 38.4666H17.8651L19.1571 37.5135L18.6602 35.9884L19.9523 36.9416L21.2443 35.9884L20.7556 37.5135L22.0477 38.4666H20.4575L19.9605 40L19.4636 38.4666Z" fill="#F7F5F5"/>
<path d="M23.2487 19.2126C23.7042 19.2126 24.2011 19.2541 24.665 19.2872L22.1057 12.7559C21.5756 12.9217 21.0373 13.0626 20.4989 13.1786L21.4514 19.2872C21.9594 19.2375 22.4646 19.2126 22.9671 19.2126H23.2487ZM15.6537 13.8251L15.1899 20.7211C15.6876 20.4948 16.1994 20.301 16.7222 20.1409C17.2191 19.9917 17.7326 19.8591 18.2461 19.7597L17.2936 13.6842C16.7222 13.792 16.1838 13.792 15.6537 13.8251ZM23.2487 21.6577C22.7849 21.6577 22.3293 21.6992 21.8324 21.7323L21.9898 22.6523C22.8131 22.4763 23.6175 22.2209 24.3916 21.8898C24.5029 21.8575 24.607 21.804 24.6981 21.7323C24.2997 21.6827 23.8986 21.6578 23.4971 21.6577H23.2487ZM16.1093 22.9922L15.8774 23.1082C16.3575 23.1743 16.8424 23.1993 17.3268 23.1828C17.7409 23.1828 18.2047 23.1828 18.7016 23.1082L18.5443 22.1882C17.7117 22.3881 16.8972 22.657 16.1093 22.9922ZM21.6833 33.1952C21.3553 33.2066 21.0325 33.1106 20.764 32.9217C20.5943 32.8106 20.4493 32.6657 20.3382 32.4959C20.227 32.3262 20.152 32.1354 20.1179 31.9354L19.124 25.5533C18.859 25.5947 18.5526 25.5947 18.2958 25.6279C17.9759 25.6486 17.655 25.6486 17.3351 25.6279C16.5219 25.6423 15.7093 25.5784 14.9083 25.4372L14.5605 30.2943C14.5246 30.6972 14.3311 31.0695 14.0221 31.3303C13.7105 31.5531 13.3367 31.6721 12.9537 31.6701H12.8791C12.6669 31.6747 12.4559 31.6362 12.2589 31.557C12.062 31.4777 11.883 31.3595 11.7329 31.2093C11.5828 31.059 11.4646 30.88 11.3855 30.6828C11.3063 30.4857 11.2678 30.2746 11.2724 30.0622L12.3822 13.4853C12.2389 13.4518 12.0999 13.4017 11.9681 13.3361C11.6329 13.1912 11.3405 12.9627 11.1187 12.6725C10.8968 12.3823 10.753 12.0401 10.7009 11.6784C10.6267 11.3014 10.6468 10.9119 10.7595 10.5446C10.8722 10.1772 11.074 9.84352 11.3469 9.57317C12.4567 8.5454 15.016 7.63367 18.0391 7.08664C19.2961 6.85773 20.5713 6.74398 21.849 6.74681C22.9525 6.7002 24.0547 6.86621 25.0956 7.23583C25.4246 7.39695 25.7064 7.64028 25.9139 7.94229C26.1214 8.2443 26.2475 8.59477 26.28 8.95982C26.3364 9.33652 26.3002 9.7213 26.1747 10.0809C26.0491 10.4405 25.838 10.764 25.5595 11.0236L25.0956 11.3635L31.2246 26.9706C31.3105 27.149 31.3551 27.3445 31.3551 27.5425C31.3551 27.7405 31.3105 27.936 31.2246 28.1144C31.0069 28.5072 30.6489 28.8032 30.2224 28.9432C30.0281 29.0231 29.8196 29.0626 29.6095 29.0593C29.4133 29.0584 29.2191 29.019 29.0381 28.9432C28.847 28.8757 28.6734 28.7662 28.5301 28.6228C28.3868 28.4793 28.2773 28.3056 28.2098 28.1144L26.4208 23.5309C25.615 23.9855 24.7589 24.3443 23.8699 24.6001C23.3805 24.7553 22.8828 24.8826 22.379 24.9814L23.3729 31.3635C23.4053 31.5562 23.3977 31.7534 23.3507 31.9431C23.3037 32.1327 23.2182 32.3106 23.0996 32.4658C22.8381 32.7827 22.4753 32.9993 22.0726 33.0792C21.9751 33.1539 21.8558 33.1946 21.733 33.1952H21.6833Z" fill="#C72133"/>
<path d="M16.1506 12.2254C14.2042 12.2254 12.6803 11.7613 12.2579 10.9987C13.3555 11.5919 14.6004 11.8566 15.8442 11.7613C16.8689 11.7684 17.8921 11.6796 18.9004 11.4961C21.5756 10.9987 23.787 10.0456 24.698 9.00952C24.2425 10.1533 21.8737 11.4049 18.9004 11.9519C18.0166 12.1271 17.1178 12.2159 16.2169 12.2171L16.1506 12.2254ZM21.0289 13.5599L21.8572 18.7567C22.3541 18.7567 22.8096 18.7153 23.2735 18.7153H23.9609L21.8158 13.3278L21.0289 13.5599ZM23.2486 19.7099C22.5099 19.7072 21.7716 19.746 21.0372 19.8259L19.9605 12.8305C20.776 12.6746 21.5788 12.4585 22.3624 12.184L25.4269 19.8922C24.7095 19.7528 23.9791 19.6917 23.2486 19.7099ZM16.1092 14.2893L15.7365 19.9751C16.0429 19.9005 16.308 19.7845 16.6144 19.7099C16.9754 19.5864 17.3432 19.484 17.716 19.4032L16.8877 14.2478C16.6475 14.2478 16.3742 14.2893 16.1092 14.2893ZM14.6515 21.5499L15.1898 13.2615C16.0206 13.2616 16.8505 13.209 17.6746 13.104L18.7513 20.0994C18.097 20.2486 17.4509 20.3978 16.838 20.5885C16.0813 20.8343 15.3515 21.1565 14.6598 21.5499H14.6515ZM21.2774 21.3261C21.9341 21.2459 22.5953 21.2071 23.2569 21.2101C24.1516 21.1558 25.048 21.2855 25.8907 21.5914C25.5056 21.916 25.0689 22.1738 24.5986 22.3539C23.6078 22.7391 22.5813 23.025 21.5342 23.2076L21.2774 21.3261ZM17.3433 23.6883C16.4451 23.7568 15.5433 23.6149 14.7095 23.2739C15.0645 22.9502 15.4815 22.7021 15.9353 22.5445C16.9127 22.1222 17.9354 21.8135 18.9832 21.6245L19.2813 23.5723C18.6523 23.6525 18.0188 23.6912 17.3847 23.6883H17.3433ZM20.5485 31.8607C20.5695 31.9922 20.6179 32.1177 20.6907 32.2292C20.7635 32.3406 20.859 32.4353 20.9709 32.5072C21.1817 32.6258 21.417 32.6939 21.6584 32.7062C21.7743 32.7062 21.8489 32.6647 21.9234 32.6647C22.2097 32.6172 22.4688 32.4669 22.6523 32.242C22.8087 32.0206 22.8767 31.7485 22.8428 31.4795L21.7743 24.6415C22.4203 24.5397 23.0572 24.3872 23.6793 24.1856C24.6837 23.9046 25.6371 23.4653 26.5036 22.8844V22.8429L28.5245 27.9569C28.5756 28.0872 28.6526 28.2058 28.7508 28.3056C28.8491 28.4053 28.9665 28.484 29.096 28.5371C29.2191 28.5786 29.3472 28.6036 29.477 28.6117C29.6311 28.6037 29.7838 28.5787 29.9325 28.5371C30.2442 28.4322 30.5046 28.2131 30.6613 27.9237C30.7163 27.8042 30.7448 27.6741 30.7448 27.5425C30.7448 27.4108 30.7163 27.2808 30.6613 27.1612L24.5075 11.2308C24.764 11.0901 25.0055 10.9234 25.2281 10.7335C25.4404 10.5379 25.6035 10.2948 25.704 10.0241C25.8045 9.75339 25.8397 9.46273 25.8066 9.17583C25.7735 8.88894 25.673 8.61395 25.5135 8.3733C25.3539 8.13265 25.1398 7.93316 24.8885 7.79112C23.9135 7.43569 22.8769 7.28065 21.8406 7.33525C20.5638 7.34906 19.2889 7.43762 18.0224 7.60048C15.0408 8.13923 12.5975 9.05096 11.6119 9.97098C11.4075 10.1785 11.2552 10.4316 11.1677 10.7095C11.0801 10.9874 11.0598 11.2821 11.1083 11.5694C11.1568 11.8567 11.2728 12.1283 11.4468 12.362C11.6207 12.5956 11.8476 12.7846 12.1088 12.9134C12.3344 13.0287 12.5781 13.1044 12.8294 13.1372L11.7195 30.1036C11.7009 30.2376 11.7153 30.3741 11.7615 30.5012C11.8077 30.6284 11.8843 30.7423 11.9846 30.833C12.2156 31.0708 12.5311 31.2078 12.8625 31.2142C13.126 31.232 13.3865 31.149 13.5913 30.9822C13.6945 30.8991 13.7783 30.7945 13.837 30.6757C13.8956 30.5569 13.9277 30.4267 13.9309 30.2942L14.3202 24.7907C15.2594 25.0744 16.2385 25.2032 17.219 25.172C17.5536 25.1811 17.8885 25.1672 18.2212 25.1305L19.4801 25.0145L20.5485 31.8607ZM21.6667 33.6593C21.2462 33.6629 20.8341 33.5418 20.4823 33.3112C20.2608 33.1665 20.0724 32.9764 19.9297 32.7536C19.7869 32.5307 19.693 32.2801 19.6541 32.0182L18.743 26.1003C18.6168 26.1207 18.4882 26.1207 18.362 26.1003C18.0319 26.1348 17.6999 26.1486 17.3681 26.1417C16.6914 26.1504 16.0153 26.1005 15.3472 25.9925L15.0408 30.3025C15.0338 30.5682 14.9687 30.8292 14.8499 31.0669C14.7311 31.3047 14.5616 31.5134 14.3533 31.6784C13.9736 31.9835 13.4985 32.1449 13.0116 32.1343H12.937C12.6477 32.1398 12.3603 32.0861 12.0925 31.9763C11.8247 31.8666 11.5822 31.7031 11.38 31.4961C11.1913 31.3072 11.0455 31.0799 10.9526 30.8296C10.8597 30.5793 10.8218 30.3119 10.8416 30.0456L11.91 13.85C11.8686 13.85 11.8686 13.85 11.8355 13.85C11.4283 13.6589 11.0725 13.3735 10.7974 13.0176C10.5223 12.6616 10.3359 12.2451 10.2535 11.8027C10.1716 11.3561 10.1997 10.8963 10.3353 10.463C10.471 10.0298 10.7101 9.63612 11.0321 9.31619C12.1751 8.28842 14.8089 7.26066 17.9396 6.72191C19.225 6.49672 20.5274 6.38302 21.8323 6.38208C23.0021 6.33737 24.1694 6.52034 25.2695 6.92083C25.6642 7.11616 26.0037 7.40741 26.257 7.76795C26.5102 8.12849 26.669 8.54682 26.7189 8.98465C26.785 9.44296 26.7355 9.91054 26.575 10.3448C26.4144 10.7791 26.1479 11.1663 25.7996 11.4712C25.7734 11.5276 25.7299 11.5741 25.6753 11.6038L31.6055 26.7716C31.6984 27.0245 31.7397 27.2934 31.7269 27.5625C31.7141 27.8315 31.6475 28.0953 31.531 28.3382C31.2566 28.8371 30.8086 29.2176 30.2721 29.4074C30.0331 29.5165 29.7727 29.5703 29.5101 29.5648C29.2626 29.5641 29.0167 29.525 28.7812 29.4488C28.5272 29.3546 28.2965 29.2066 28.105 29.0149C27.9134 28.8232 27.7655 28.5924 27.6714 28.3382L26.0729 24.252C25.3824 24.5815 24.6681 24.8586 23.936 25.0808C23.5717 25.2022 23.2012 25.3046 22.8262 25.3875L23.7455 31.3469C23.7903 31.6084 23.7794 31.8764 23.7138 32.1334C23.6481 32.3905 23.5292 32.6308 23.3646 32.8388C23.0351 33.2391 22.5743 33.5094 22.0642 33.6013C21.9558 33.6279 21.8446 33.6418 21.7329 33.6428L21.6667 33.6593Z" fill="#F7F5F5"/>
</svg>
