<svg width="140" height="127" viewBox="0 0 140 127" fill="none" xmlns="http://www.w3.org/2000/svg">
<g clip-path="url(#clip0)" filter="url(#filter0_d)">
<path d="M107.854 37.6249V79.1166C107.854 81.3895 106.638 83.4887 104.669 84.6324L68.7362 105.378C66.7673 106.507 64.3351 106.507 62.3662 105.378L26.4483 84.6324C24.4794 83.4887 23.2633 81.3895 23.2633 79.1166V37.6249C23.2633 35.352 24.4794 33.2528 26.4483 32.1091L61.2805 12.0002H69.8365L104.683 32.1091C106.638 33.2383 107.854 35.352 107.854 37.6249Z" fill="#2E4C69"/>
<path d="M26.7379 80.1155V36.626C26.7379 36.2062 26.9551 35.8298 27.317 35.6271L64.9722 13.8678C65.3342 13.6652 65.7685 13.6652 66.1304 13.8678L103.8 35.6126C104.162 35.8153 104.379 36.2062 104.379 36.6115V80.1011C104.379 80.5209 104.162 80.8973 103.8 81.1L66.1304 102.859C65.7685 103.062 65.3342 103.062 64.9722 102.859L27.317 81.1145C26.9551 80.9118 26.7379 80.5209 26.7379 80.1155Z" fill="#173250"/>
<path d="M65.5512 98.6607C65.3485 98.6607 65.1314 98.6028 64.9576 98.5015L31.1099 78.9428C30.748 78.7256 30.5164 78.3347 30.5164 77.9149V38.8119C30.5164 38.3921 30.748 37.9867 31.1099 37.7841L64.9721 18.2398C65.1603 18.1385 65.363 18.0806 65.5657 18.0806C65.7684 18.0806 65.9855 18.1385 66.1593 18.2398L100.021 37.7841C100.383 38.0012 100.615 38.3921 100.615 38.8119V77.9149C100.615 78.3347 100.383 78.7401 100.021 78.9428L66.1593 98.487C65.9711 98.6028 65.7684 98.6607 65.5512 98.6607Z" fill="#2E4C69"/>
<path d="M65.5513 18.4714C65.6815 18.4714 65.8263 18.5004 65.9421 18.5728L99.8043 38.117C100.05 38.2618 100.195 38.5224 100.195 38.8119V77.9149C100.195 78.2044 100.05 78.465 99.8043 78.6098L65.9421 98.154C65.8118 98.2264 65.6815 98.2553 65.5513 98.2553C65.421 98.2553 65.2762 98.2264 65.1604 98.154L31.2982 78.6098C31.0521 78.465 30.9073 78.2044 30.9073 77.9149V38.8119C30.9073 38.5224 31.0521 38.2618 31.2982 38.117L65.1604 18.5728C65.2762 18.5148 65.421 18.4714 65.5513 18.4714ZM65.5513 17.6752C65.2762 17.6752 65.0011 17.7476 64.755 17.8923L30.8928 37.4366C30.4006 37.7261 30.0966 38.2473 30.0966 38.8119V77.9149C30.0966 78.4795 30.4006 79.0151 30.8928 79.2902L64.755 98.8344C65.0011 98.9792 65.2762 99.0516 65.5513 99.0516C65.8263 99.0516 66.1014 98.9792 66.3475 98.8344L100.21 79.2902C100.702 79.0007 101.006 78.4795 101.006 77.9149V38.8119C101.006 38.2473 100.702 37.7116 100.21 37.4366L66.3475 17.8923C66.1159 17.7476 65.8408 17.6752 65.5513 17.6752Z" fill="#C52333"/>
<path d="M76.9593 91.4512L72.1529 79.3482C72.2253 79.2469 72.2832 79.16 72.3556 79.0442C73.3979 77.2925 72.8188 75.0195 71.0816 73.9772L70.9078 73.8758L70.7052 73.8035C69.7497 73.4705 68.7507 73.2968 67.7373 73.2968C67.607 73.2968 67.4767 73.2968 67.3609 73.3112C66.2027 73.3257 65.0301 73.427 63.9009 73.6297C62.4966 73.8614 59.022 74.5708 57.3282 76.1777L57.2848 76.2212L57.2413 76.2646C57.0097 76.5107 56.8215 76.7858 56.6622 77.0753C55.8226 78.6678 56.2714 80.6078 57.6322 81.6791L56.836 94.5348C56.7781 95.3745 57.0821 96.1997 57.6757 96.7933L57.7046 96.8222C58.2837 97.3868 59.0655 97.7053 59.8762 97.7198H59.9775C60.1513 97.7198 60.3395 97.7053 60.5132 97.6764L66.9556 99.8769L68.577 98.8056C68.9679 98.6464 69.3443 98.4003 69.6483 98.0962L73.4558 95.5627C73.644 95.5917 73.8178 95.6206 74.006 95.6206H74.0494C75.2076 95.6062 76.2789 94.9692 76.8435 93.9702L76.8869 93.8834L76.9304 93.7965C77.2778 93.0437 77.2778 92.1895 76.9593 91.4512Z" fill="#173250"/>
<path fill-rule="evenodd" clip-rule="evenodd" d="M79.4349 80.738L78.9138 82.345H77.2054L78.5808 83.3584L78.0596 84.9654L79.4349 83.9664L80.8247 84.9654L80.2891 83.3584L81.6644 82.345H79.9561L79.4349 80.738Z" fill="#C52333"/>
<path fill-rule="evenodd" clip-rule="evenodd" d="M85.1824 78.9718L84.6467 80.5933H82.9529L84.3282 81.5922L83.807 83.2136L85.1824 82.2147L86.5577 83.2136L86.0365 81.5922L87.4119 80.5933H85.7036L85.1824 78.9718Z" fill="#C52333"/>
<path fill-rule="evenodd" clip-rule="evenodd" d="M51.6676 80.738L52.2033 82.345H53.9116L52.5363 83.3584L53.0575 84.9654L51.6676 83.9664L50.2923 84.9654L50.828 83.3584L49.4526 82.345H51.1465L51.6676 80.738Z" fill="#C52333"/>
<path fill-rule="evenodd" clip-rule="evenodd" d="M45.9347 78.9718L46.4559 80.5933H48.1642L46.7888 81.5922L47.31 83.2136L45.9347 82.2147L44.5594 83.2136L45.0805 81.5922L43.7052 80.5933H45.4135L45.9347 78.9718Z" fill="#C52333"/>
<path d="M119.942 80.767C84.1979 75.1064 47.7877 75.1064 12.058 80.767C12.058 69.7064 12.058 58.6458 12.058 47.5852C47.8022 41.9246 84.2124 41.9246 119.942 47.5852C119.942 58.6458 119.942 69.7064 119.942 80.767Z" fill="#173250"/>
<path d="M21.1497 68.6786C20.1218 68.8089 19.0795 68.9537 18.0805 69.0984L17.9068 69.1274L17.791 68.9971C17.3132 68.4614 16.8355 67.9258 16.3577 67.4046L16.2709 67.3177V52.9998L16.3288 52.9129C16.8355 52.2035 17.3277 51.4797 17.8344 50.7703L17.9068 50.6545L18.0371 50.64C19.5427 50.4228 21.0773 50.2201 22.5974 50.0319L22.7567 50.0175L22.8725 50.1333C23.3647 50.6834 23.8714 51.2191 24.3636 51.7692L24.4505 51.8561V66.2754L23.7556 67.173L24.6387 68.5483L24.4505 68.722C23.7411 69.4025 23.0317 70.0829 22.3224 70.7633L21.9604 71.1108L21.1497 68.6786ZM19.2387 65.3778C19.4703 65.3488 19.7165 65.3199 19.9481 65.2764L19.7165 64.6394L21.2076 63.2207L21.5261 63.6984V53.7381C20.7588 53.8394 20.006 53.9408 19.2532 54.0421V65.3778H19.2387Z" fill="white"/>
<path d="M22.6699 50.3504C23.1621 50.9005 23.6688 51.4361 24.161 51.9863C24.161 56.7203 24.161 61.4399 24.161 66.1739C23.9149 66.5069 23.6543 66.8399 23.4082 67.1729C23.6977 67.6217 23.9728 68.0705 24.2624 68.5048C23.553 69.1852 22.8436 69.8656 22.1342 70.5461C21.8736 69.8077 21.613 69.0694 21.3524 68.3166C20.2377 68.4613 19.1374 68.6061 18.0227 68.7654C17.5449 68.2297 17.0672 67.6941 16.5894 67.1729C16.5894 62.4823 16.5894 57.7772 16.5894 53.0865C17.0961 52.3772 17.5884 51.6678 18.0951 50.9439C19.6297 50.7412 21.1498 50.5386 22.6699 50.3504ZM18.9203 65.7396C19.4125 65.6672 19.8902 65.6093 20.3825 65.5369C20.2811 65.2619 20.1798 64.9868 20.0929 64.7262C20.4404 64.3932 20.8023 64.0458 21.1498 63.7128C21.3814 64.0603 21.613 64.4077 21.8302 64.7697C21.8302 60.9766 21.8302 57.1691 21.8302 53.3761C20.8602 53.5064 19.8902 53.6367 18.9203 53.767C18.9203 57.7482 18.9203 61.7439 18.9203 65.7396ZM22.916 49.6699L22.583 49.7134C21.0629 49.9016 19.5283 50.1042 18.0227 50.3214L17.7476 50.3648L17.5884 50.5965C17.0817 51.3059 16.5894 52.0152 16.0827 52.7391L15.9669 52.8983V53.101V67.1873V67.4335L16.1262 67.6217C16.6039 68.1573 17.0817 68.693 17.5594 69.2142L17.791 69.4747L18.124 69.4313C19.0506 69.301 19.9916 69.1707 20.9326 69.0549L21.2945 70.0828L21.5406 70.7922L21.8736 71.7332L22.583 71.0383C23.2924 70.3579 24.0018 69.6774 24.7112 68.997L25.0876 68.6351L24.8125 68.2008L24.7546 68.1139C24.5664 67.8243 24.3782 67.5348 24.19 67.2308C24.3492 67.0136 24.5085 66.8109 24.6822 66.5938L24.8125 66.4201V66.2029V52.0152V51.7691L24.6532 51.5809C24.161 51.0308 23.6543 50.4951 23.1621 49.945L22.916 49.6699ZM19.5573 54.3026C20.1074 54.2302 20.6575 54.1579 21.1932 54.0855V62.7718L20.701 63.2351C20.3535 63.568 19.9916 63.9155 19.6441 64.2485L19.5573 64.3353V54.3026Z" fill="#C62332"/>
<path d="M27.4183 67.7811C26.9261 67.2455 26.4483 66.7098 25.9561 66.1597L25.8692 66.0728V53.1881C25.6376 53.2171 24.8124 53.3184 24.8124 53.3184V49.757L25.0874 49.7281C26.5641 49.5543 28.0553 49.3806 29.5464 49.2214L29.8939 49.1779V52.7393C29.8939 52.7393 29.0832 52.8262 28.837 52.8551V64.2053C29.7057 64.1039 30.5888 64.0171 31.4719 63.9302V52.5801C31.2403 52.609 30.4006 52.6959 30.4006 52.6959V49.149L30.6901 49.12C32.1668 48.9608 33.6724 48.8305 35.1491 48.6857L35.4966 48.6567V52.2037C35.4966 52.2037 34.6858 52.276 34.4252 52.305V65.2331L34.3673 65.32C33.8896 65.957 33.4118 66.594 32.9341 67.231L32.8472 67.3468L32.7025 67.3613C31.0376 67.5205 29.3437 67.6943 27.6644 67.8825L27.5051 67.8969L27.4183 67.7811Z" fill="white"/>
<path d="M35.1926 48.9896C35.1926 49.9596 35.1926 50.9295 35.1926 51.8995C34.8307 51.9285 34.4832 51.9574 34.1213 52.0008C34.1213 56.373 34.1213 60.7451 34.1213 65.1172C33.6435 65.7542 33.1658 66.3912 32.688 67.0282C31.0087 67.1875 29.3293 67.3612 27.65 67.5494C27.1578 67.0137 26.68 66.4636 26.1878 65.9279C26.1878 61.5558 26.1878 57.1837 26.1878 52.8116C25.8403 52.855 25.4784 52.8984 25.1309 52.9419C25.1309 51.9719 25.1309 51.0019 25.1309 50.0319C26.6076 49.8582 28.0988 49.6845 29.5899 49.5252C29.5899 50.4952 29.5899 51.4652 29.5899 52.4352C29.2425 52.4786 28.8805 52.5076 28.5186 52.551C28.5186 56.5467 28.5186 60.5424 28.5186 64.5381C29.6044 64.4223 30.6902 64.3065 31.7905 64.1907C31.7905 60.195 31.7905 56.1992 31.7905 52.2035C31.4285 52.2325 31.0811 52.2759 30.7191 52.3049C30.7191 51.3349 30.7191 50.3649 30.7191 49.3949C32.2103 49.2647 33.7014 49.1199 35.1926 48.9896ZM35.8296 48.2947L35.1347 48.3526C33.658 48.4829 32.1524 48.6277 30.6612 48.7869L30.2269 48.8303L30.0966 48.8448L29.532 48.9027C28.0553 49.062 26.5497 49.2357 25.073 49.4094L24.5084 49.4818V50.0464V52.9563V53.6802L25.2178 53.5933C25.3336 53.5789 25.4494 53.5644 25.5653 53.5499V65.9569V66.203L25.7245 66.3912C26.2167 66.9269 26.6945 67.4625 27.1867 68.0127L27.4039 68.2588L27.7224 68.2153C29.3872 68.0271 31.0811 67.8534 32.746 67.6942L33.021 67.6652L33.1947 67.4336C33.6725 66.7966 34.1502 66.1596 34.628 65.5226L34.7583 65.3489V65.1317V52.5944C34.9175 52.5799 35.0768 52.5655 35.2505 52.551L35.8296 52.4931V51.914V49.0041V48.2947ZM30.2269 53.0287L30.806 52.9708C30.9218 52.9563 31.0521 52.9419 31.1679 52.9274V63.6405C30.502 63.7129 29.836 63.7708 29.1701 63.8432V53.1301C29.3293 53.1156 29.5031 53.1011 29.6623 53.0722L30.2269 53.0287Z" fill="#C62332"/>
<path d="M35.844 63.5103C35.844 63.5103 36.6547 63.4379 36.9153 63.4234V52.0733C36.6692 52.0877 35.844 52.1601 35.844 52.1601V48.6132L36.1335 48.5842C37.6102 48.4539 39.1158 48.3381 40.607 48.2223L40.9544 48.1934V51.7403C40.9544 51.7403 40.1437 51.7982 39.8831 51.8127V63.1628C40.1292 63.1483 40.9544 63.0904 40.9544 63.0904V66.6373L40.6649 66.6518C39.1882 66.7676 37.6826 66.8834 36.2059 67.0137L35.8585 67.0427V63.5103H35.844Z" fill="white"/>
<path d="M40.636 48.5408C40.636 49.5108 40.636 50.4807 40.636 51.4507C40.2741 51.4797 39.9266 51.5086 39.5647 51.5376C39.5647 55.5333 39.5647 59.529 39.5647 63.5247C39.9266 63.4958 40.2741 63.4668 40.636 63.4378C40.636 64.4078 40.636 65.3778 40.636 66.3478C39.1449 66.4636 37.6537 66.5794 36.177 66.7097C36.177 65.7397 36.177 64.7697 36.177 63.7998C36.539 63.7708 36.8864 63.7419 37.2483 63.7129C37.2483 59.7172 37.2483 55.7215 37.2483 51.7258C36.8864 51.7547 36.539 51.7837 36.177 51.8126C36.177 50.8427 36.177 49.8727 36.177 48.9027C37.6537 48.7724 39.1449 48.6566 40.636 48.5408ZM41.273 47.8604L40.5926 47.9038C39.1014 48.0196 37.6103 48.1354 36.1191 48.2657L35.54 48.3091V48.8882V51.7982V52.4931L36.2349 52.4352C36.3652 52.4207 36.4811 52.4207 36.6114 52.4062V63.1193C36.4521 63.1338 36.2929 63.1483 36.1336 63.1628L35.5545 63.2062V63.7853V66.6952V67.3901L36.2494 67.3322C37.7261 67.2019 39.2317 67.0861 40.7084 66.9703L41.302 66.9269V66.3333V63.4234V62.7429L40.6215 62.7864C40.4912 62.8008 40.3609 62.8008 40.2451 62.8153V52.1022C40.4044 52.0877 40.5636 52.0732 40.7229 52.0732L41.3164 52.0298V51.4362V48.5408V47.8604H41.273Z" fill="#C62332"/>
<path d="M42.8368 66.391C42.359 65.8409 41.8668 65.2763 41.389 64.7262L41.3167 64.6393V50.2055L41.3746 50.1186C41.8668 49.4672 42.359 48.8157 42.8368 48.1787L42.9236 48.0629L43.0684 48.0484C44.6319 47.9471 46.2389 47.8457 47.8169 47.7589L47.9762 47.7444L48.0775 47.8747C48.5408 48.4248 49.0041 48.9894 49.4528 49.554L49.5252 49.6409V53.7524L49.2212 53.7669C48.4394 53.8103 47.6721 53.8393 46.8904 53.8827L46.5574 53.8972V51.3782C45.8046 51.4216 45.0228 51.465 44.27 51.5085V62.8731C45.0373 62.8296 45.8046 62.7717 46.5574 62.7428V60.1948L46.8614 60.1803C47.6432 60.1369 48.425 60.0935 49.1923 60.0645L49.5252 60.05V64.3787L49.4673 64.4656C49.062 65.0157 48.6566 65.5514 48.2512 66.1015L48.1644 66.2173L48.0196 66.2318C46.3982 66.3187 44.7333 66.42 43.0973 66.5213L42.9381 66.5358L42.8368 66.391Z" fill="white"/>
<path d="M47.8314 48.0919C48.2946 48.642 48.7579 49.2067 49.2067 49.7713C49.2067 51.0018 49.2067 52.2324 49.2067 53.463C48.4249 53.5064 47.6432 53.5353 46.8759 53.5788C46.8759 52.7391 46.8759 51.8994 46.8759 51.0597C45.9059 51.1176 44.9214 51.1756 43.9515 51.2335C43.9515 55.2292 43.9515 59.2249 43.9515 63.2206C44.9214 63.1627 45.9059 63.1048 46.8759 63.0469C46.8759 62.1927 46.8759 61.3386 46.8759 60.4989C47.6576 60.4555 48.4394 60.412 49.2067 60.3831C49.2067 61.686 49.2067 62.9745 49.2067 64.2774C48.8013 64.8276 48.396 65.3632 47.9906 65.9134C46.3547 66.0002 44.7043 66.1016 43.0684 66.2029C42.5906 65.6528 42.0984 65.0882 41.6206 64.538C41.6206 59.804 41.6206 55.0699 41.6206 50.3359C42.1129 49.6844 42.6051 49.0329 43.0828 48.3959C44.6753 48.2656 46.2533 48.1788 47.8314 48.0919ZM48.1209 47.4404L47.8024 47.4549C46.2244 47.5418 44.6174 47.6286 43.0394 47.7445L42.7499 47.7589L42.5761 47.9906C42.0839 48.642 41.5917 49.279 41.1139 49.9305L40.9836 50.1042V50.3214V64.5235V64.7697L41.1429 64.9434C41.6206 65.4935 42.1129 66.0437 42.5906 66.6083L42.7933 66.8399L43.1118 66.8254C44.7477 66.7096 46.3981 66.6227 48.034 66.5359L48.3381 66.5214L48.5118 66.2753C48.9171 65.7252 49.3225 65.1895 49.7279 64.6394L49.8582 64.4656V64.2485V60.3541V59.6882L49.1922 59.7171C48.4104 59.7605 47.6287 59.7895 46.8469 59.8329L46.2389 59.8619V60.4699V62.4388C45.6887 62.4678 45.1386 62.4967 44.5885 62.5402V51.827C45.1386 51.7981 45.6887 51.7546 46.2389 51.7257V53.5643V54.2302L46.9048 54.1868C47.6866 54.1434 48.4684 54.1 49.2356 54.071L49.8437 54.042V53.434V49.7423V49.5107L49.6989 49.3369C49.2356 48.7723 48.7724 48.2222 48.3236 47.6576L48.1209 47.4404Z" fill="#C62332"/>
<path d="M49.887 62.5693C49.887 62.5693 50.6978 62.5259 50.9583 62.5259V51.1757C50.7122 51.1902 49.887 51.2192 49.887 51.2192V47.6722L50.1911 47.6578C51.6822 47.5854 53.1878 47.5275 54.6645 47.484L54.9975 47.4696V51.0165C54.9975 51.0165 54.1868 51.0454 53.9262 51.0454V55.8519C54.9396 54.2159 55.9675 52.58 56.9953 50.9441C56.7927 50.9441 56.0688 50.973 56.0688 50.973V47.4261L56.3728 47.4116C58.0232 47.3682 59.7026 47.3248 61.3675 47.3103H61.686V50.8572C61.686 50.8572 60.8318 50.8717 60.5712 50.8717C59.6592 52.2615 58.7471 53.6513 57.835 55.0411C58.8774 57.4299 59.9197 59.8186 60.9621 62.2074C61.2661 62.2074 62.2216 62.1929 62.2216 62.1929V65.7688H61.9031C60.3396 65.7832 58.7616 65.8122 57.2125 65.8556L56.8795 65.8701V62.3232C56.8795 62.3232 57.6034 62.3087 57.8061 62.2942C57.1835 60.8465 56.5466 59.3988 55.924 57.9511C55.2581 59.0079 54.5777 60.0503 53.9117 61.1071V62.41C54.1578 62.3956 54.983 62.3811 54.983 62.3811V65.9135L54.679 65.928C53.2023 65.9714 51.6967 66.0294 50.2055 66.1017L49.8726 66.1162V62.5693H49.887Z" fill="white"/>
<path d="M61.3675 47.6432C61.3675 48.6131 61.3675 49.5831 61.3675 50.5531C61.049 50.5531 60.716 50.5676 60.3975 50.5676C59.4275 52.0443 58.4431 53.5354 57.4731 55.0266C58.5734 57.5311 59.6592 60.0357 60.7594 62.5402C61.1358 62.5402 61.5267 62.5258 61.9031 62.5258C61.9031 63.4957 61.9031 64.4657 61.9031 65.4357C60.3396 65.4502 58.7761 65.4791 57.2125 65.5226C57.2125 64.5526 57.2125 63.5826 57.2125 62.6126C57.5745 62.5982 57.9364 62.5982 58.2983 62.5837C57.531 60.803 56.7637 59.0223 55.9964 57.2561C55.2002 58.5011 54.4039 59.7461 53.6077 61.0057C53.6077 61.5848 53.6077 62.1494 53.6077 62.7285C53.9696 62.714 54.3171 62.6995 54.679 62.685C54.679 63.655 54.679 64.625 54.679 65.5949C53.1879 65.6384 51.6967 65.6963 50.2056 65.7687C50.2056 64.7987 50.2056 63.8287 50.2056 62.8587C50.5675 62.8443 50.9149 62.8298 51.2769 62.8153C51.2769 58.8196 51.2769 54.8239 51.2769 50.8282C50.9149 50.8426 50.5675 50.8571 50.2056 50.8716C50.2056 49.9016 50.2056 48.9316 50.2056 47.9617C51.6967 47.8893 53.1879 47.8314 54.679 47.7879C54.679 48.7579 54.679 49.7279 54.679 50.6979C54.3171 50.7123 53.9696 50.7268 53.6077 50.7413C53.6077 52.8115 53.6077 54.8963 53.6077 56.9665C54.9251 54.8384 56.257 52.7247 57.5745 50.611C57.1836 50.6255 56.7782 50.6255 56.3873 50.64C56.3873 49.67 56.3873 48.7 56.3873 47.73C58.0522 47.7011 59.7026 47.6577 61.3675 47.6432ZM62.0045 46.9917L61.353 47.0062C59.7026 47.0351 58.0088 47.0641 56.3584 47.1075L55.7358 47.122V47.7445V50.6544V51.3059L56.3873 51.2914C55.6635 52.4351 54.9396 53.5933 54.2302 54.7515V51.3638C54.375 51.3638 54.5342 51.3493 54.679 51.3493L55.3015 51.3349V50.7123V47.8024V47.1509L54.6501 47.1654C53.1589 47.2089 51.6533 47.2668 50.1621 47.3392L49.5541 47.3681V47.9762V50.8861V51.552L50.22 51.5231C50.3503 51.5231 50.4951 51.5086 50.6254 51.5086V62.2217C50.4661 62.2217 50.3214 62.2362 50.1621 62.2362L49.5541 62.2652V62.8732V65.7831V66.4491L50.22 66.4201C51.6967 66.3478 53.2023 66.2898 54.679 66.2464L55.3015 66.2319V65.6094V62.6995V62.048L54.6501 62.0625C54.5198 62.0625 54.375 62.077 54.2447 62.077V61.2083C54.7948 60.3542 55.345 59.4856 55.8806 58.6314C56.3584 59.7461 56.8506 60.8754 57.3283 61.9901C57.2849 61.9901 57.227 61.9901 57.1836 61.9901L56.561 62.0046V62.6271V65.537V66.1885L57.2125 66.174C58.7616 66.1306 60.3396 66.1016 61.9031 66.0872L62.5257 66.0727V65.4502V62.5402V61.9032L61.8887 61.9177C61.6425 61.9177 61.4109 61.9177 61.1648 61.9322C60.2093 59.7461 59.2249 57.5022 58.1825 55.1134C59.0077 53.8539 59.8619 52.551 60.7305 51.2191C60.9476 51.2191 61.1503 51.2191 61.3675 51.2046L61.99 51.1901V50.5676V47.6577L62.0045 46.9917Z" fill="#C62332"/>
<path d="M71.6608 65.7831C70.1697 65.7541 68.6641 65.7396 67.1874 65.7396H66.8689V62.1927C66.8689 62.1927 67.6941 62.1927 67.9402 62.1927V50.8426C67.6941 50.8426 66.8689 50.8426 66.8689 50.8426V47.2957H67.1874C69.6196 47.3101 72.0807 47.3391 74.5273 47.397H74.6721L74.759 47.5128C75.2078 48.0919 75.6565 48.6565 76.1053 49.2356L76.1777 49.3225V56.3584L76.1053 56.4453C75.6276 57.0243 75.1354 57.6034 74.6576 58.1825L74.5563 58.2983H74.397C73.2389 58.2694 72.0662 58.2404 70.8936 58.2259V62.2217C71.1397 62.2217 71.9649 62.2361 71.9649 62.2361V65.7831H71.6608ZM70.9225 54.7225C71.6898 54.7369 72.4571 54.7514 73.2244 54.7659V50.915C72.4571 50.9005 71.6898 50.886 70.9225 50.8715V54.7225Z" fill="white"/>
<path d="M67.2018 47.6142C69.6485 47.6286 72.0806 47.6576 74.5273 47.7155C74.9761 48.2946 75.4249 48.8592 75.8737 49.4383C75.8737 51.7112 75.8737 53.9841 75.8737 56.2426C75.3959 56.8217 74.9037 57.4008 74.426 57.9799C73.152 57.9509 71.878 57.9219 70.604 57.9075C70.604 59.4565 70.604 60.9911 70.604 62.5402C70.9659 62.5402 71.3134 62.5547 71.6753 62.5547C71.6753 63.5246 71.6753 64.4946 71.6753 65.4646C70.1841 65.4356 68.693 65.4211 67.2018 65.4211C67.2018 64.4512 67.2018 63.4812 67.2018 62.5112C67.5637 62.5112 67.9112 62.5112 68.2731 62.5112C68.2731 58.5155 68.2731 54.5198 68.2731 50.5241C67.9112 50.5241 67.5637 50.5241 67.2018 50.5241C67.2018 49.5541 67.2018 48.5841 67.2018 47.6142ZM73.5428 55.0989C73.5428 53.6077 73.5428 52.1021 73.5428 50.611C72.5584 50.5965 71.5884 50.5675 70.604 50.553C70.604 52.0442 70.604 53.5498 70.604 55.041C71.5884 55.0555 72.5584 55.0699 73.5428 55.0989ZM66.5648 46.9772V47.6142V50.5241V51.1611H67.2018C67.3466 51.1611 67.4914 51.1611 67.6361 51.1611V61.8742C67.4914 61.8742 67.3466 61.8742 67.2018 61.8742H66.5648V62.5112V65.4211V66.0581H67.2018C68.6785 66.0581 70.1841 66.0726 71.6753 66.1016L72.3268 66.1161V65.4646V62.5547V61.9321L71.7042 61.9177C71.5595 61.9177 71.4147 61.9177 71.2554 61.9177V58.5589C72.3123 58.5734 73.3836 58.6024 74.426 58.6169L74.73 58.6313L74.9327 58.3997C75.4104 57.8206 75.9026 57.2415 76.3804 56.6624L76.5252 56.4887V56.2571V49.4528V49.2356L76.3949 49.0619C75.9461 48.4828 75.4973 47.9182 75.0485 47.3391L74.8603 47.1075L74.5563 47.093C72.1241 47.0351 69.6485 46.9916 67.2163 46.9916L66.5648 46.9772ZM71.241 54.4185V51.2045C71.7911 51.219 72.3412 51.219 72.9058 51.2335V54.4474C72.3412 54.4329 71.7911 54.4185 71.241 54.4185Z" fill="#C62332"/>
<path d="M81.317 66.0871C79.8403 66.0147 78.3347 65.9713 76.8436 65.9134L76.5396 65.8989V62.352C76.5396 62.352 77.3648 62.381 77.6109 62.381V51.0308C77.3648 51.0164 76.5396 51.0019 76.5396 51.0019V47.455L76.8725 47.4694C78.3637 47.5129 79.8693 47.5708 81.346 47.6432L81.65 47.6576V51.2046C81.65 51.2046 80.8248 51.1611 80.5787 51.1611V62.5113C80.8393 62.5257 81.65 62.5547 81.65 62.5547V66.1016L81.317 66.0871Z" fill="white"/>
<path d="M76.8581 47.7879C78.3492 47.8313 79.8404 47.8892 81.3315 47.9616C81.3315 48.9316 81.3315 49.9016 81.3315 50.8715C80.9696 50.8571 80.6221 50.8426 80.2602 50.8281C80.2602 54.8238 80.2602 58.8195 80.2602 62.8153C80.6221 62.8297 80.9696 62.8442 81.3315 62.8587C81.3315 63.8287 81.3315 64.7986 81.3315 65.7686C79.8404 65.6962 78.3492 65.6528 76.8581 65.5949C76.8581 64.6249 76.8581 63.6549 76.8581 62.685C77.22 62.6994 77.5674 62.7139 77.9294 62.7139C77.9294 58.7182 77.9294 54.7225 77.9294 50.7268C77.5674 50.7123 77.22 50.6978 76.8581 50.6978C76.8581 49.7278 76.8581 48.7579 76.8581 47.7879ZM76.2211 47.1219V47.7734V50.6833V51.3059L76.8436 51.3203C76.9884 51.3203 77.1476 51.3348 77.2924 51.3348V62.048C77.1621 62.048 77.0173 62.0335 76.887 62.0335L76.2355 62.019V62.6705V65.5804V66.2029L76.8581 66.2174C78.3347 66.2608 79.8404 66.3187 81.317 66.3911L81.983 66.4201V65.7686V62.8587V62.2506L81.3749 62.2217C81.2157 62.2217 81.0709 62.2072 80.9117 62.2072V51.4941C81.042 51.4941 81.1867 51.5085 81.317 51.5085L81.983 51.5375V50.8715V47.9616V47.3536L81.3749 47.3246C79.8838 47.2522 78.3782 47.1943 76.887 47.1509L76.2211 47.1219Z" fill="#C62332"/>
<path d="M88.6714 66.4925C87.0355 66.3912 85.3706 66.2898 83.7492 66.203L83.6044 66.1885L83.5175 66.0727C83.0398 65.4646 82.5476 64.8421 82.0698 64.2341L81.9974 64.1472V49.7134L82.0698 49.6265C82.562 49.033 83.0543 48.4394 83.532 47.8603L83.6334 47.7445L83.7926 47.759C85.3851 47.8458 86.9776 47.9327 88.5411 48.0341L88.6859 48.0485L88.7727 48.1643C89.236 48.7724 89.6993 49.3804 90.1481 50.003L90.206 50.0898V54.2158L89.8875 54.1869C89.1057 54.129 88.3384 54.0855 87.5567 54.0276L87.2526 54.0131V51.4941C86.4854 51.4507 85.7181 51.4072 84.9653 51.3638V62.714C85.7325 62.7574 86.4998 62.8008 87.2526 62.8442V60.2963L87.5856 60.3107C88.3674 60.3542 89.1492 60.4121 89.9165 60.47L90.206 60.4845V64.7842L90.1336 64.8711C89.7282 65.3633 89.3229 65.87 88.9175 66.3622L88.8162 66.4925H88.6714Z" fill="white"/>
<path d="M83.7782 48.0629C85.3562 48.1498 86.9487 48.2367 88.5267 48.338C88.9899 48.946 89.4532 49.5541 89.902 50.1766C89.902 51.4072 89.902 52.6377 89.902 53.8683C89.1202 53.8104 88.353 53.7669 87.5712 53.709C87.5712 52.8694 87.5712 52.0297 87.5712 51.19C86.6012 51.1321 85.6168 51.0742 84.6468 51.0163C84.6468 55.012 84.6468 59.0077 84.6468 63.0034C85.6168 63.0613 86.6012 63.1192 87.5712 63.1771C87.5712 62.323 87.5712 61.4688 87.5712 60.6291C88.353 60.6726 89.1347 60.7305 89.902 60.7884C89.902 62.0913 89.902 63.3798 89.902 64.6828C89.4966 65.175 89.0913 65.6817 88.6859 66.1739C87.05 66.0726 85.3996 65.9712 83.7637 65.8844C83.2859 65.2763 82.7937 64.6538 82.316 64.0458C82.316 59.3117 82.316 54.5777 82.316 49.8436C82.8082 49.2501 83.3004 48.6565 83.7782 48.0629ZM83.5031 47.4115L83.3004 47.6576C82.8082 48.2511 82.316 48.8302 81.8237 49.4238L81.679 49.5975V49.8291V64.0313V64.2484L81.8237 64.4222C82.3015 65.0302 82.7937 65.6383 83.2714 66.2608L83.4452 66.4924L83.7347 66.5069C85.3706 66.5938 87.021 66.6951 88.657 66.7964L88.9899 66.8109L89.1926 66.5503C89.598 66.0581 90.0033 65.5514 90.4087 65.0592L90.5535 64.8854V64.6538V60.7594V60.1659L89.9599 60.1224C89.1926 60.0645 88.3964 60.0211 87.6146 59.9632L86.9342 59.9198V60.6002V62.4822C86.384 62.4533 85.8339 62.4098 85.2838 62.3809V51.6678C85.8339 51.6967 86.384 51.7257 86.9342 51.7691V53.6801V54.2736L87.5278 54.3171C88.3095 54.3605 89.0913 54.4184 89.8586 54.4763L90.539 54.5198V53.8393V50.1476V49.9305L90.4087 49.7568C89.9454 49.1487 89.4822 48.5262 89.0334 47.9182L88.8597 47.6865L88.5701 47.672C86.9921 47.5707 85.3851 47.4694 83.8071 47.397L83.5031 47.4115Z" fill="#C62332"/>
<path d="M102.526 67.6797C100.977 67.5205 99.4137 67.3612 97.8502 67.2165L97.5606 67.1875V63.6406C97.5606 63.6406 98.2845 63.713 98.4727 63.7275C97.8502 62.2074 97.2276 60.6728 96.5906 59.1527C95.9247 60.1226 95.2587 61.0781 94.5928 62.0481V63.38C94.8534 63.3945 95.6641 63.4669 95.6641 63.4669V67.0138L95.3166 66.9848C93.84 66.8545 92.3343 66.7387 90.8577 66.6374L90.5681 66.6229V63.076C90.5681 63.076 91.3933 63.1339 91.6394 63.1484V51.7983C91.3788 51.7838 90.5681 51.7259 90.5681 51.7259V48.179L90.9156 48.2079C92.4067 48.3093 93.9124 48.4395 95.389 48.5554L95.6786 48.5843V52.1312C95.6786 52.1312 94.8534 52.0588 94.6073 52.0444V56.8798C95.6496 55.3162 96.6775 53.7961 97.6764 52.3194C97.4593 52.305 96.7354 52.2326 96.7354 52.2326V48.6857L97.0829 48.7146C98.7333 48.8594 100.413 49.0331 102.063 49.2068L102.353 49.2358V52.7827C102.353 52.7827 101.484 52.6958 101.223 52.6669C100.326 53.9409 99.4137 55.2149 98.5161 56.4889C99.5585 59.0079 100.601 61.5269 101.658 64.0604C101.976 64.0894 102.295 64.1328 102.613 64.1618L102.903 64.1907V67.7377L102.526 67.6797Z" fill="white"/>
<path d="M90.901 48.5118C92.3922 48.6132 93.8833 48.7435 95.36 48.8593C95.36 49.8293 95.36 50.7992 95.36 51.7692C94.9981 51.7403 94.6506 51.7113 94.2887 51.6824C94.2887 53.7526 94.2887 55.8373 94.2887 57.9076C95.6061 55.9387 96.9236 53.9842 98.241 52.0298C97.8501 51.9864 97.4447 51.9574 97.0539 51.914C97.0539 50.944 97.0539 49.974 97.0539 49.0041C98.7187 49.1488 100.369 49.3226 102.02 49.4963C102.02 50.4663 102.02 51.4362 102.02 52.4062C101.701 52.3773 101.368 52.3338 101.05 52.3049C100.08 53.6802 99.1096 55.0411 98.1396 56.4164C99.2254 59.0513 100.326 61.6861 101.411 64.321C101.788 64.3644 102.164 64.3934 102.541 64.4368C102.541 65.4068 102.541 66.3767 102.541 67.3467C100.977 67.1875 99.4281 67.0282 97.8646 66.8834C97.8646 65.9135 97.8646 64.9435 97.8646 63.9735C98.2265 64.0025 98.5884 64.0459 98.9504 64.0749C98.1831 62.2073 97.4158 60.3397 96.6485 58.4722C95.8522 59.6304 95.056 60.774 94.2742 61.9322C94.2742 62.5113 94.2742 63.0759 94.2742 63.655C94.6362 63.684 94.9836 63.7129 95.3455 63.7419C95.3455 64.7119 95.3455 65.6818 95.3455 66.6518C93.8544 66.5215 92.3632 66.4057 90.8866 66.3043C90.8866 65.3344 90.8866 64.3644 90.8866 63.3944C91.2485 63.4234 91.5959 63.4523 91.9579 63.4668C91.9579 59.4711 91.9579 55.4754 91.9579 51.4797C91.5959 51.4507 91.2485 51.4218 90.8866 51.4073C90.901 50.4518 90.901 49.4818 90.901 48.5118ZM90.264 47.8314V48.5118V51.4218V52.0153L90.8576 52.0588C91.0169 52.0732 91.1761 52.0877 91.3354 52.0877V62.8009C91.2051 62.7864 91.0748 62.7864 90.9445 62.7719L90.264 62.7285V63.4089V66.3188V66.9124L90.8576 66.9558C92.3343 67.0572 93.8399 67.1875 95.3166 67.3033L96.0115 67.3612V66.6663V63.7564V63.1773L95.4324 63.1338C95.2732 63.1194 95.1139 63.1049 94.9547 63.0904V62.1494C95.4903 61.3676 96.026 60.6003 96.5616 59.8186C97.0394 60.9912 97.5316 62.1783 98.0093 63.351C97.9949 63.351 97.9804 63.351 97.9804 63.351L97.2855 63.2931V63.988V66.8979V67.477L97.8646 67.5349C99.4136 67.6797 100.977 67.8389 102.526 67.9982L103.236 68.0706V67.3612V64.4513V63.8722L102.671 63.8143C102.41 63.7853 102.164 63.7564 101.904 63.7274C100.876 61.2518 99.8769 58.8196 98.9069 56.4888C99.7611 55.2727 100.601 54.1001 101.397 52.9564C101.6 52.9708 101.802 52.9998 101.991 53.0143L102.7 53.0866V52.3773V49.4673V48.8883L102.135 48.8303C100.485 48.6566 98.8056 48.4974 97.1552 48.3381L96.4603 48.2802V48.9751V51.885V52.4641L97.0394 52.522C97.0828 52.522 97.1118 52.522 97.1552 52.5365C96.4313 53.6078 95.7075 54.6936 94.9691 55.7939V52.3483C95.0994 52.3628 95.2153 52.3628 95.3455 52.3773L96.0404 52.4352V51.7403V48.8303V48.2513L95.4614 48.2078C93.9847 48.0775 92.4791 47.9617 90.9879 47.8604L90.264 47.8314Z" fill="#C62332"/>
<path d="M114.05 69.113C112.443 68.8813 110.822 68.6642 109.215 68.4615L109.084 68.447L108.997 68.3457C108.52 67.7376 108.056 67.1296 107.579 66.5216L107.506 66.4347V51.9865L107.593 51.8996C108.143 51.3205 108.679 50.7414 109.229 50.1623L109.345 50.0465L109.504 50.061C111.01 50.2492 112.559 50.4519 114.079 50.669L114.224 50.6835L114.296 50.7993C114.745 51.4653 115.194 52.1457 115.657 52.8117L115.715 52.8985V56.7639L115.353 56.706C114.586 56.5902 113.804 56.4889 113.037 56.373L112.761 56.3296V54.0133C112.009 53.9119 111.241 53.8106 110.489 53.7092V57.7484C111.705 57.9076 112.935 58.0669 114.137 58.2406L114.282 58.2551L114.354 58.3709C114.788 59.0079 115.223 59.6449 115.657 60.2819L115.715 60.3688V67.3612L115.642 67.4481C115.208 67.9693 114.774 68.4905 114.339 68.9972L114.224 69.1275L114.05 69.113ZM110.474 65.0738C111.227 65.1752 111.994 65.2765 112.747 65.3779V61.6283C111.994 61.5269 111.227 61.4256 110.474 61.3242V65.0738Z" fill="white"/>
<path d="M109.475 50.3649C110.995 50.5531 112.515 50.7558 114.036 50.9729C114.484 51.6389 114.933 52.3193 115.396 52.9853C115.396 54.1145 115.396 55.2582 115.396 56.3874C114.629 56.2716 113.847 56.1702 113.08 56.0544C113.08 55.2871 113.08 54.5054 113.08 53.7381C112.11 53.6078 111.14 53.4775 110.17 53.3472C110.17 54.9107 110.17 56.4598 110.17 58.0233C111.473 58.1971 112.79 58.3708 114.093 58.559C114.528 59.196 114.962 59.833 115.396 60.47C115.396 62.7284 115.396 64.9724 115.396 67.2309C114.962 67.752 114.528 68.2732 114.093 68.7799C112.486 68.5483 110.865 68.3311 109.258 68.1284C108.78 67.5204 108.317 66.9124 107.839 66.3043C107.839 61.5703 107.839 56.8217 107.839 52.0877C108.389 51.5231 108.925 50.944 109.475 50.3649ZM113.08 65.7397C113.08 64.2775 113.08 62.8153 113.08 61.3386C112.11 61.2083 111.14 61.078 110.17 60.9477C110.17 62.4099 110.17 63.8721 110.17 65.3488C111.126 65.4791 112.11 65.6094 113.08 65.7397ZM109.229 49.6844L109.012 49.9161C108.462 50.4952 107.926 51.0743 107.376 51.6534L107.202 51.8416V52.0877V66.3043V66.5215L107.333 66.6952C107.81 67.3032 108.274 67.9113 108.751 68.5193L108.911 68.722L109.171 68.751C110.778 68.9536 112.4 69.1708 114.007 69.4024L114.354 69.4459L114.586 69.1708C115.02 68.6496 115.454 68.1284 115.889 67.6217L116.033 67.448V67.2164V60.4555V60.2528L115.918 60.0936C115.483 59.4566 115.049 58.8196 114.615 58.1826L114.455 57.9509L114.18 57.9075C113.066 57.7483 111.922 57.589 110.807 57.4442V54.0566C111.357 54.129 111.907 54.2013 112.443 54.2737V56.0689V56.619L112.993 56.6914C113.76 56.7928 114.542 56.9086 115.31 57.0244L116.033 57.1257V56.3874V52.9853V52.7971L115.932 52.6378C115.483 51.9718 115.034 51.2914 114.571 50.6255L114.412 50.3938L114.137 50.3504C112.617 50.1332 111.082 49.9306 109.562 49.7424L109.229 49.6844ZM110.793 64.7842V61.6716C111.343 61.744 111.893 61.8164 112.429 61.8888V65.0014C111.893 64.929 111.343 64.8566 110.793 64.7842Z" fill="#C62332"/>
<path d="M41.4323 74.1218C41.4323 73.8322 41.4323 73.5282 41.4323 73.2387C41.5625 73.2242 41.7073 73.2242 41.8376 73.2097C41.8376 71.9936 41.8376 70.792 41.8376 69.5759C41.7073 69.5904 41.5625 69.5904 41.4323 69.6049C41.4323 69.3153 41.4323 69.0113 41.4323 68.7218C42.3588 68.6494 43.2853 68.5915 44.2119 68.5336C44.3856 68.6928 44.5593 68.8521 44.7186 69.0113C44.7186 69.7062 44.7186 70.3867 44.7186 71.0816C44.5304 71.2698 44.3567 71.458 44.1684 71.6606C43.6907 71.6896 43.1985 71.7186 42.7207 71.762C42.7207 72.2253 42.7207 72.703 42.7207 73.1663C42.851 73.1518 42.9958 73.1518 43.1261 73.1373C43.1261 73.4269 43.1261 73.7309 43.1261 74.0204C42.5615 74.0349 41.9969 74.0783 41.4323 74.1218ZM43.821 69.4456C43.4446 69.4746 43.0827 69.4891 42.7062 69.518C42.7062 69.9668 42.7062 70.4301 42.7062 70.8789C43.0827 70.8499 43.4446 70.8354 43.821 70.8065C43.821 70.3432 43.821 69.8944 43.821 69.4456Z" fill="white"/>
<path d="M44.458 73.0362C44.5738 73.0217 44.7041 73.0217 44.82 73.0072C45.2253 71.4726 45.6307 69.9525 46.036 68.4179C46.2966 68.4035 46.5717 68.389 46.8323 68.3745C47.2377 69.8512 47.643 71.3423 48.0339 72.8335C48.1787 72.819 48.3234 72.819 48.4827 72.8045C48.4827 73.0941 48.4827 73.3981 48.4827 73.6876C47.9036 73.7166 47.3245 73.7455 46.7454 73.7745C46.7454 73.4849 46.7454 73.1809 46.7454 72.8914C46.8902 72.8769 47.035 72.8769 47.1797 72.8624C47.1508 72.7466 47.1074 72.6308 47.0784 72.515C46.6441 72.5439 46.1953 72.5584 45.761 72.5874C45.732 72.7032 45.7031 72.8335 45.6596 72.9493C45.8189 72.9348 45.9637 72.9348 46.1229 72.9203C46.1229 73.2099 46.1229 73.5139 46.1229 73.8034C45.5583 73.8324 44.9937 73.8758 44.4291 73.9048C44.458 73.6152 44.458 73.3257 44.458 73.0362ZM46.4559 70.0539C46.3111 70.604 46.1663 71.1541 46.0071 71.7187C46.2966 71.7043 46.5862 71.6898 46.8612 71.6753C46.7309 71.1252 46.5862 70.5895 46.4559 70.0539Z" fill="white"/>
<path d="M48.8735 68.273C49.8146 68.2296 50.7556 68.1861 51.6966 68.1427C51.8558 68.2875 52.0006 68.4178 52.1599 68.5625C52.1599 69.3443 52.1599 70.1116 52.1599 70.8934C52.0006 71.0526 51.8558 71.2263 51.6966 71.3856C51.5953 71.3856 51.5084 71.4001 51.407 71.4001C51.6242 71.8199 51.8414 72.2253 52.0585 72.6451C52.1888 72.6451 52.3046 72.6306 52.4349 72.6306C52.4349 72.9202 52.4349 73.2242 52.4349 73.5137C52.1309 73.5282 51.8414 73.5427 51.5373 73.5572C51.1899 72.8478 50.828 72.1529 50.4805 71.4435C50.3792 71.4435 50.2778 71.458 50.1765 71.458C50.1765 71.8778 50.1765 72.3121 50.1765 72.732C50.3068 72.732 50.4516 72.7175 50.5818 72.7175C50.5818 73.007 50.5818 73.3111 50.5818 73.6006C50.0172 73.6296 49.4526 73.6585 48.888 73.6875C48.888 73.3979 48.888 73.0939 48.888 72.8044C49.0183 72.8044 49.1631 72.7899 49.2934 72.7899C49.2934 71.5738 49.2934 70.3722 49.2934 69.1561C49.1631 69.1561 49.0183 69.1706 48.888 69.1706C48.8735 68.8521 48.8735 68.5625 48.8735 68.273ZM51.2768 69.0403C50.9003 69.0548 50.5384 69.0692 50.162 69.0837C50.162 69.5759 50.162 70.0682 50.162 70.5604C50.5384 70.5459 50.9003 70.5314 51.2768 70.517C51.2768 70.0247 51.2768 69.5325 51.2768 69.0403Z" fill="white"/>
<path d="M52.7969 68.0993C53.3615 68.0848 53.9261 68.0559 54.4907 68.0414C54.4907 68.3309 54.4907 68.6349 54.4907 68.9245C54.3604 68.9245 54.2156 68.939 54.0853 68.939C54.0853 70.1551 54.0853 71.3567 54.0853 72.5727C54.4618 72.5583 54.8237 72.5438 55.2001 72.5293C55.2001 72.1095 55.2001 71.6896 55.2001 71.2698C55.4896 71.2553 55.7937 71.2553 56.0832 71.2408C56.0832 71.9502 56.0832 72.6741 56.0832 73.3835C54.9829 73.4124 53.8971 73.4559 52.7969 73.4993C52.7969 73.2097 52.7969 72.9057 52.7969 72.6162C52.9272 72.6162 53.0719 72.6017 53.2022 72.6017C53.2022 71.3856 53.2022 70.184 53.2022 68.9679C53.0719 68.9679 52.9272 68.9824 52.7969 68.9824C52.7969 68.6784 52.7969 68.3888 52.7969 68.0993Z" fill="white"/>
<path d="M56.4596 72.4858C56.5754 72.4858 56.7057 72.4858 56.8215 72.4713C57.2269 70.9512 57.6322 69.4311 58.0376 67.9255C58.3127 67.9255 58.5733 67.911 58.8483 67.911C59.2537 69.4022 59.6591 70.9078 60.0644 72.4134C60.2092 72.4134 60.354 72.4134 60.5132 72.3989C60.5132 72.6885 60.5132 72.9925 60.5132 73.282C59.9341 73.2965 59.355 73.2965 58.7759 73.311C58.7759 73.0215 58.7759 72.7174 58.7759 72.4279C58.9207 72.4279 59.0655 72.4279 59.2103 72.4134C59.1813 72.2976 59.1379 72.1818 59.1089 72.0515C58.6746 72.066 58.2258 72.066 57.7915 72.0804C57.7625 72.1963 57.7336 72.3266 57.6902 72.4424C57.8494 72.4424 57.9942 72.4279 58.1534 72.4279C58.1534 72.7174 58.1534 73.0215 58.1534 73.311C57.5888 73.3255 57.0242 73.34 56.4596 73.3544C56.4596 73.0794 56.4596 72.7898 56.4596 72.4858ZM58.4574 69.5759C58.3127 70.126 58.1679 70.6762 58.0087 71.2263C58.2982 71.2263 58.5877 71.2118 58.8773 71.2118C58.7325 70.6617 58.5877 70.126 58.4574 69.5759Z" fill="white"/>
<path d="M60.2526 68.7798C60.2526 68.4902 60.2526 68.1862 60.2526 67.8967C60.8461 67.8822 61.4397 67.8822 62.0188 67.8677C62.0188 68.1572 62.0188 68.4613 62.0188 68.7508C61.874 68.7508 61.7292 68.7508 61.5845 68.7508C61.8016 69.1707 62.0043 69.576 62.2215 69.9959C62.4241 69.576 62.6268 69.1562 62.844 68.7363C62.7137 68.7363 62.5834 68.7363 62.4676 68.7363C62.4676 68.4468 62.4676 68.1428 62.4676 67.8532C63.0177 67.8532 63.5679 67.8387 64.118 67.8387C64.118 68.1283 64.118 68.4323 64.118 68.7219C64.0022 68.7219 63.9008 68.7219 63.785 68.7219C63.4231 69.4457 63.0467 70.1696 62.6847 70.9079C62.6847 71.4001 62.6847 71.8779 62.6847 72.3701C62.815 72.3701 62.9598 72.3701 63.0901 72.3701C63.0901 72.6597 63.0901 72.9637 63.0901 73.2532C62.5255 73.2532 61.9609 73.2677 61.3963 73.2677C61.3963 72.9782 61.3963 72.6741 61.3963 72.3846C61.5266 72.3846 61.6713 72.3846 61.8016 72.3846C61.8016 71.9068 61.8016 71.4146 61.8016 70.9369C61.4107 70.213 61.0343 69.4892 60.6435 68.7653C60.5132 68.7653 60.3829 68.7653 60.2526 68.7798Z" fill="white"/>
<path d="M66.1158 73.2387C66.1158 72.9492 66.1158 72.6452 66.1158 72.3556C66.2461 72.3556 66.3909 72.3556 66.5212 72.3556C66.5212 71.1395 66.5212 69.9379 66.5212 68.7219C66.3909 68.7219 66.2461 68.7219 66.1158 68.7219C66.1158 68.4323 66.1158 68.1283 66.1158 67.8387C67.0279 67.8387 67.94 67.8387 68.852 67.8532C69.0402 68.0269 69.214 68.2152 69.4022 68.3889C69.4022 68.8666 69.4022 69.3589 69.4022 69.8366C69.2719 69.9669 69.1416 70.0972 69.0113 70.2275C69.1416 70.3578 69.2719 70.5025 69.4022 70.6328C69.4022 71.3133 69.4022 72.0082 69.4022 72.6886C69.214 72.8768 69.0258 73.0505 68.8376 73.2387C67.94 73.2532 67.0279 73.2387 66.1158 73.2387ZM67.4043 68.7219C67.4043 69.0983 67.4043 69.4747 67.4043 69.8511C67.7807 69.8511 68.1427 69.8511 68.5191 69.8511C68.5191 69.4747 68.5191 69.0983 68.5191 68.7219C68.1571 68.7363 67.7807 68.7363 67.4043 68.7219ZM68.5191 70.7487C68.1427 70.7487 67.7807 70.7487 67.4043 70.7487C67.4043 71.2843 67.4043 71.8344 67.4043 72.3701C67.7807 72.3701 68.1427 72.3701 68.5191 72.3701C68.5191 71.8344 68.5191 71.2843 68.5191 70.7487Z" fill="white"/>
<path d="M69.7787 68.7509C69.7787 68.4614 69.7787 68.1573 69.7787 67.8678C70.3433 67.8678 70.9079 67.8823 71.4725 67.8968C71.4725 68.1863 71.4725 68.4903 71.4725 68.7799C71.3422 68.7799 71.1974 68.7799 71.0672 68.7799C71.0672 69.9959 71.0672 71.1975 71.0672 72.4136C71.487 72.4136 71.8924 72.4281 72.3122 72.4281C72.3122 71.212 72.3122 70.0104 72.3122 68.7943C72.1819 68.7943 72.0371 68.7943 71.9068 68.7943C71.9068 68.5048 71.9068 68.2008 71.9068 67.9112C72.4714 67.9257 73.036 67.9257 73.6007 67.9402C73.6007 68.2297 73.6007 68.5337 73.6007 68.8233C73.4704 68.8233 73.3256 68.8233 73.1953 68.8088C73.1953 70.1407 73.1953 71.4581 73.1953 72.79C73.0216 72.9638 72.8334 73.1375 72.6596 73.3257C72.0226 73.3112 71.3856 73.2967 70.7487 73.2967C70.5605 73.1085 70.3722 72.9348 70.1985 72.7466C70.1985 71.4147 70.1985 70.0973 70.1985 68.7654C70.0538 68.7509 69.909 68.7509 69.7787 68.7509Z" fill="white"/>
<path d="M73.9771 73.3401C73.9771 73.0505 73.9771 72.7465 73.9771 72.457C74.1073 72.457 74.2521 72.457 74.3824 72.4714C74.3824 71.2553 74.3824 70.0537 74.3824 68.8377C74.2521 68.8377 74.1073 68.8377 73.9771 68.8232C73.9771 68.5336 73.9771 68.2296 73.9771 67.9401C74.5417 67.9545 75.1063 67.969 75.6709 67.9835C75.6709 68.273 75.6709 68.5771 75.6709 68.8666C75.5406 68.8666 75.3958 68.8521 75.2655 68.8521C75.2655 70.0682 75.2655 71.2698 75.2655 72.4859C75.3958 72.4859 75.5406 72.5004 75.6709 72.5004C75.6709 72.7899 75.6709 73.094 75.6709 73.3835C75.1063 73.369 74.5417 73.3545 73.9771 73.3401Z" fill="white"/>
<path d="M76.0474 67.9835C76.612 67.998 77.1766 68.0125 77.7412 68.0414C77.7412 68.331 77.7412 68.635 77.7412 68.9245C77.6109 68.9245 77.4661 68.9101 77.3358 68.9101C77.3358 70.1261 77.3358 71.3278 77.3358 72.5438C77.7122 72.5583 78.0742 72.5728 78.4506 72.5873C78.4506 72.1674 78.4506 71.7476 78.4506 71.3278C78.7401 71.3422 79.0441 71.3567 79.3337 71.3567C79.3337 72.0661 79.3337 72.7899 79.3337 73.4993C78.2334 73.4559 77.1476 73.4269 76.0474 73.3835C76.0474 73.094 76.0474 72.79 76.0474 72.5004C76.1777 72.5004 76.3224 72.5149 76.4527 72.5149C76.4527 71.2988 76.4527 70.0972 76.4527 68.8811C76.3224 68.8811 76.1777 68.8666 76.0474 68.8666C76.0474 68.5771 76.0474 68.2875 76.0474 67.9835Z" fill="white"/>
<path d="M79.71 68.1136C80.651 68.1571 81.592 68.186 82.533 68.2439C82.6923 68.4032 82.837 68.548 82.9963 68.7072C82.9963 70.1984 82.9963 71.6895 82.9963 73.1807C82.8226 73.3399 82.6488 73.4992 82.4751 73.6584C81.5486 73.615 80.6365 73.5716 79.71 73.5426C79.71 73.2531 79.71 72.949 79.71 72.6595C79.8403 72.6595 79.985 72.674 80.1153 72.674C80.1153 71.4579 80.1153 70.2563 80.1153 69.0402C79.985 69.0402 79.8403 69.0257 79.71 69.0257C79.71 68.7072 79.71 68.4032 79.71 68.1136ZM82.1132 69.0981C81.7368 69.0836 81.3748 69.0691 80.9984 69.0547C80.9984 70.2708 80.9984 71.4724 80.9984 72.6884C81.3748 72.7029 81.7368 72.7174 82.1132 72.7319C82.1132 71.5303 82.1132 70.3142 82.1132 69.0981Z" fill="white"/>
<path d="M83.3727 72.8045C83.503 72.8045 83.6477 72.819 83.778 72.819C83.778 71.6029 83.778 70.4013 83.778 69.1852C83.6477 69.1852 83.503 69.1707 83.3727 69.1707C83.3727 68.8812 83.3727 68.5771 83.3727 68.2876C84.473 68.3455 85.5587 68.4034 86.659 68.4758C86.659 69.0115 86.659 69.5616 86.659 70.0972C86.3695 70.0828 86.0654 70.0683 85.7759 70.0393C85.7759 69.7932 85.7759 69.5471 85.7759 69.301C85.3995 69.2865 85.0376 69.2576 84.6612 69.2431C84.6612 69.605 84.6612 69.9814 84.6612 70.3434C85.0376 70.3578 85.3995 70.3868 85.7759 70.4013C85.7759 70.6908 85.7759 70.9948 85.7759 71.2844C85.3995 71.2699 85.0376 71.2409 84.6612 71.2265C84.6612 71.7766 84.6612 72.3267 84.6612 72.8624C85.0376 72.8769 85.3995 72.9058 85.7759 72.9203C85.7759 72.5439 85.7759 72.182 85.7759 71.8056C86.0654 71.82 86.3695 71.8345 86.659 71.8635C86.659 72.5294 86.659 73.1954 86.659 73.8613C85.5587 73.7889 84.473 73.731 83.3727 73.6731C83.3727 73.3836 83.3727 73.094 83.3727 72.8045Z" fill="white"/>
<path d="M87.021 68.4757C87.962 68.5336 88.903 68.5915 89.844 68.6639C90.0033 68.8232 90.1481 68.9824 90.3073 69.1417C90.3073 69.9234 90.3073 70.6907 90.3073 71.4725C90.1481 71.6173 90.0033 71.7765 89.844 71.9213C89.7427 71.9213 89.6558 71.9068 89.5545 71.9068C89.7717 72.3411 89.9888 72.7899 90.206 73.2242C90.3363 73.2387 90.4521 73.2387 90.5824 73.2532C90.5824 73.5427 90.5824 73.8468 90.5824 74.1363C90.2784 74.1218 89.9888 74.0929 89.6848 74.0784C89.3373 73.3401 88.9754 72.5872 88.628 71.8489C88.5266 71.8489 88.4253 71.8344 88.3239 71.8344C88.3239 72.2543 88.3239 72.6886 88.3239 73.1084C88.4542 73.1229 88.599 73.1229 88.7293 73.1374C88.7293 73.4269 88.7293 73.7309 88.7293 74.0205C88.1647 73.9771 87.6001 73.9481 87.0355 73.9191C87.0355 73.6296 87.0355 73.3256 87.0355 73.036C87.1658 73.0505 87.3105 73.0505 87.4408 73.065C87.4408 71.8489 87.4408 70.6473 87.4408 69.4312C87.3105 69.4167 87.1658 69.4167 87.0355 69.4023C87.021 69.0693 87.021 68.7797 87.021 68.4757ZM89.4242 69.5181C89.0478 69.4891 88.6859 69.4746 88.3095 69.4457C88.3095 69.9379 88.3095 70.4301 88.3095 70.9224C88.6859 70.9513 89.0478 70.9658 89.4242 70.9947C89.4242 70.5025 89.4242 70.0103 89.4242 69.5181Z" fill="white"/>
<path d="M75.0194 92.2618L69.6484 78.7401C69.8655 78.6243 70.0682 78.4795 70.2709 78.3202C70.3867 78.2189 70.4736 78.1031 70.546 77.9728C70.9948 77.22 70.7486 76.25 69.9958 75.8012C69.1706 75.5117 68.2875 75.3814 67.4044 75.4248C66.3331 75.4393 65.2762 75.5261 64.2339 75.7143C61.7004 76.1197 59.6012 76.9159 58.7615 77.7122C58.6602 77.8135 58.5733 77.9294 58.5154 78.0597C58.11 78.8269 58.4141 79.7969 59.1813 80.2023C59.384 80.2747 59.6012 80.347 59.8183 80.3905L58.9208 94.7084C58.9063 94.9401 58.9931 95.1572 59.1524 95.331C59.3551 95.5192 59.6157 95.635 59.8907 95.635H59.9342C60.1658 95.635 60.383 95.5626 60.5712 95.4323C60.7449 95.2875 60.8607 95.0704 60.8752 94.8532L61.1792 90.1771C61.9754 90.4087 62.8151 90.5245 63.6548 90.4956H64.451C64.7985 90.4811 65.1604 90.4087 65.5224 90.4087L66.42 96.2141C66.4489 96.4457 66.5792 96.6484 66.7819 96.7642C66.9556 96.8655 67.1438 96.9235 67.3465 96.9235H67.5636C67.8098 96.88 68.0269 96.7642 68.1862 96.576C68.3309 96.4023 68.3889 96.1562 68.3454 95.939L67.4478 90.1336C67.9835 90.0178 68.5191 89.8875 69.0258 89.7283C69.8945 89.4966 70.7052 89.1202 71.458 88.628H71.5015L73.2242 92.9857C73.3111 93.2028 73.4704 93.3765 73.6875 93.4489C73.7889 93.4924 73.9047 93.5068 74.0205 93.5068C74.4258 93.5068 74.8023 93.2752 75.0049 92.9277C75.1063 92.7106 75.1063 92.4645 75.0194 92.2618ZM61.8017 80.5208C62.5111 80.5208 63.235 80.4629 63.9443 80.376L64.8419 86.2682C64.2773 86.384 63.7127 86.5143 63.206 86.6736C62.5545 86.8763 61.9175 87.1369 61.324 87.4698L61.8017 80.5208ZM63.5969 89.294C62.8296 89.3519 62.0478 89.2361 61.324 88.9755C61.628 88.7004 61.9899 88.4977 62.3663 88.3529C63.206 87.991 64.0891 87.7304 64.9867 87.5567L65.2328 89.2071C64.6972 89.265 64.147 89.294 63.5969 89.294ZM66.7529 86.0076L65.8409 80.0575C66.5358 79.9127 67.2307 79.7245 67.8966 79.4929L70.4736 86.0511C69.8655 85.9352 69.243 85.8918 68.6205 85.8918C67.998 85.9063 67.3754 85.9352 66.7529 86.0076ZM69.7642 88.1068C68.939 88.4543 68.0848 88.7149 67.2017 88.9031L66.9556 87.2237C67.5202 87.1658 68.0848 87.1369 68.635 87.1224C69.4023 87.079 70.1551 87.1948 70.8789 87.4554C70.546 87.7304 70.1695 87.9621 69.7642 88.1068Z" fill="white"/>
<path d="M89.7282 42.8946H41.3888V14.7219C41.3888 13.2163 42.6194 11.9857 44.125 11.9857H86.992C88.4977 11.9857 89.7282 13.2163 89.7282 14.7219V42.8946Z" fill="#2E4C69"/>
<path d="M57.0677 18.1967H47.6285V27.6358H57.0677V18.1967Z" fill="#3DB54A"/>
<path d="M56.2714 19.0074V26.8395H48.4392V19.0074H56.2714ZM57.8784 17.4004H46.8323V28.4465H57.8784V17.4004Z" fill="#17314F"/>
<path d="M52.0441 25.6089L49.3948 23.0754V21.1355L51.8993 23.5532L58.5154 15.1564V17.4003L52.0441 25.6089Z" fill="white"/>
<path d="M69.8801 18.1967H60.4409V27.6358H69.8801V18.1967Z" fill="#3DB54A"/>
<path d="M69.0838 19.0074V26.8395H61.2516V19.0074H69.0838ZM70.6908 17.4004H59.6447V28.4465H70.6908V17.4004Z" fill="#17314F"/>
<path d="M64.8709 25.6089L62.2216 23.0754V21.1355L64.7261 23.5532L71.3277 15.1564V17.4003L64.8709 25.6089Z" fill="white"/>
<path d="M82.7068 18.1967H73.2677V27.6358H82.7068V18.1967Z" fill="#3DB54A"/>
<path d="M81.9106 19.0074V26.8395H74.0784V19.0074H81.9106ZM83.5175 17.4004H72.4714V28.4465H83.5175V17.4004Z" fill="#17314F"/>
<path d="M77.6976 25.6089L75.0338 23.0754V21.1355L77.5529 23.5532L84.1545 15.1564V17.4003L77.6976 25.6089Z" fill="white"/>
<path d="M57.1979 30.8062H47.7588V40.2453H57.1979V30.8062Z" fill="#3DB54A"/>
<path d="M56.4017 31.6025V39.4346H48.5695V31.6025H56.4017ZM58.0086 29.9955H46.9625V41.0416H58.0086V29.9955Z" fill="#17314F"/>
<path d="M52.1888 38.2185L49.525 35.6705V33.745L52.0441 36.1483L58.6457 27.7515V29.9954L52.1888 38.2185Z" fill="white"/>
<path d="M70.0248 30.8062H60.5857V40.2453H70.0248V30.8062Z" fill="#3DB54A"/>
<path d="M69.2286 31.6025V39.4346H61.3964V31.6025H69.2286ZM70.8355 29.9955H59.7894V41.0416H70.8355V29.9955Z" fill="#17314F"/>
<path d="M65.0011 38.2185L62.3518 35.6705V33.745L64.8708 36.1483L71.4724 27.7515V29.9954L65.0011 38.2185Z" fill="white"/>
<path d="M82.8516 30.8062H73.4125V40.2453H82.8516V30.8062Z" fill="#3DB54A"/>
<path d="M82.0408 31.6025V39.4346H74.2087V31.6025H82.0408ZM83.6478 29.9955H72.6017V41.0416H83.6478V29.9955Z" fill="#17314F"/>
<path d="M77.8279 38.2185L75.1786 35.6705V33.745L77.6832 36.1483L84.2848 27.7515V29.9954L77.8279 38.2185Z" fill="white"/>
</g>
<defs>
<filter id="filter0_d" x="0" y="0.00012207" width="140" height="126.2" filterUnits="userSpaceOnUse" color-interpolation-filters="sRGB">
<feFlood flood-opacity="0" result="BackgroundImageFix"/>
<feColorMatrix in="SourceAlpha" type="matrix" values="0 0 0 0 0 0 0 0 0 0 0 0 0 0 0 0 0 0 127 0"/>
<feOffset dx="4" dy="4"/>
<feGaussianBlur stdDeviation="8"/>
<feColorMatrix type="matrix" values="0 0 0 0 0.0901961 0 0 0 0 0.192157 0 0 0 0 0.309804 0 0 0 0.4 0"/>
<feBlend mode="normal" in2="BackgroundImageFix" result="effect1_dropShadow"/>
<feBlend mode="normal" in="SourceGraphic" in2="effect1_dropShadow" result="shape"/>
</filter>
<clipPath id="clip0">
<rect width="108" height="94.2" fill="white" transform="translate(12 12.0001)"/>
</clipPath>
</defs>
</svg>
