<svg width="119" height="32" viewBox="0 0 119 32" fill="none" xmlns="http://www.w3.org/2000/svg">
<path d="M36.507 29.235L35.1841 27.9088V25.7273H37.2148V27.1861H39.9269V23.8707H36.3549L35.1973 22.7169V17.903L36.302 16.8156H40.8199L41.9642 17.9362V20.31H39.9798V18.8512H37.195V21.8152H40.767L41.9246 22.9756V27.7165L40.4428 29.235H36.507ZM78.5705 29.235L77.2475 27.9088V25.7273H79.265V27.1861H81.9771V23.8707H78.4051L77.2475 22.7169V17.903L78.3522 16.8156H82.8701L84.0078 17.9428V20.3166H81.9837V18.8579H79.2783V21.8152H82.8502L84.0078 22.9756V27.7165L82.5195 29.235H78.5705ZM46.0985 21.9876H48.6386V18.8579H46.0985V21.9876ZM43.1483 29.2814V27.1861H44.081V18.8579H43.1483V16.8355H49.4985L50.6693 18.0157V22.7501L49.4125 23.9967H46.1051V27.1861H47.0312V29.2283L43.1483 29.2814ZM53.7319 27.2259H56.2257V18.8579H53.7055L53.7319 27.2259ZM52.9183 29.2549L51.6681 27.9287V18.1881L52.9911 16.862H56.96L58.2829 18.1881V27.9221L56.96 29.2482L52.9183 29.2549ZM62.2452 22.2528H64.7853V18.8579H62.2452V22.2528ZM65.374 29.2549L62.9596 24.2884H62.2518V27.1861H63.1845V29.2283H59.295V27.1861H60.2277V18.8579H59.295V16.8355H65.751L66.8094 17.8433V23.2076L65.751 24.2884H65.0895L66.558 27.1861H67.4246V29.2283L65.374 29.2549ZM70.0043 29.2549V27.1861H70.9304V18.8579H69.6736V21.2648H67.7354V16.8355H76.1759V21.2648H74.1915V18.8579H72.9347V27.1861H73.8607V29.2283L70.0043 29.2549ZM87.9105 21.4372H90.4572V18.8512H87.9105V21.4372ZM87.9105 27.2192H90.4572V23.4861H87.9105V27.2192ZM84.9537 29.2549V27.2192H85.8798V18.8512H84.9537V16.8222H91.2312L92.4814 18.0489V21.3974L91.5817 22.2992L92.4814 23.2275V27.9685L91.2047 29.2549H84.9537ZM95.5374 27.2192H98.0841V18.8512H95.5374V27.2192ZM94.7568 29.2549L93.5067 27.9287V18.1616L94.8296 16.8355H98.7985L100.121 18.1616V27.9088L98.7985 29.235L94.7568 29.2549ZM103.191 27.2192H105.737V18.8512H103.191V27.2192ZM102.417 29.2549L101.167 27.9287V18.1616L102.49 16.8355H106.458L107.781 18.1616V27.9088L106.458 29.235L102.417 29.2549ZM114.912 29.2549V27.2192H115.845L113.86 23.4596L111.79 26.0191V27.2259H112.716V29.2549H108.833V27.2192H109.759V18.8512H108.833V16.8222H112.716V18.8512H111.79V23.2076L115.236 18.8579H114.204V16.8222H118.537V18.8512H117.69L115.15 21.9279L118.001 27.2325H118.993V29.2615L114.912 29.2549Z" fill="#18314F"/>
<path d="M64.2825 14.7866L62.9595 13.4604V11.2723H64.944V12.7642H67.6494V9.38915H64.0774L62.9264 8.22877V3.45463L64.0311 2.36719H68.549L69.6868 3.49442V5.86159H67.6693V4.40946H64.9572V7.36677H68.5292L69.6868 8.52052V13.2615L68.205 14.7866H64.2825ZM47.084 9.62786H49.0685L48.0696 6.14008L47.084 9.62786ZM48.7708 14.7998V12.7576H49.9218L49.6109 11.4646H46.6011L46.2373 12.7576H47.256V14.7998H43.3731V12.7576H44.2529L47.1502 2.36719H48.9825L51.8798 12.7576H52.7595V14.7998H48.7708ZM72.9942 14.7998V12.7576H73.9268V4.40946H72.67V6.80979H70.7385V2.38708H79.1724V6.80979H77.1879V4.40946H75.9245V12.7576H76.8572V14.7998H72.9942ZM82.2549 12.7443H84.7883V4.40946H82.2549V12.7443ZM81.4677 14.7998L80.2307 13.4737V3.73312L81.5537 2.40697H85.5226L86.8124 3.73312V13.4671L85.4895 14.7932L81.4677 14.7998ZM90.2257 12.7443H92.7591V4.40946H90.2257V12.7443ZM89.4319 14.7998L88.1883 13.4737V3.73312L89.5113 2.40697H93.4801L94.8031 3.73312V13.4671L93.4801 14.7932L89.4319 14.7998ZM95.9673 14.7998V12.7642H96.9V4.40946H95.9144V2.38708H99.7906V4.40946H98.8646V12.7642H101.398V9.8732H103.382V14.7998H95.9673ZM38.1144 7.34688H40.6478V4.40946H38.1144V7.34688ZM38.1144 12.7443H40.6478V9.38915H38.1144V12.7443ZM35.1642 14.7998V12.7576H36.0903V4.40946H35.1642V2.38708H41.4284L42.6852 3.61377V7.29384L41.7856 8.18899L42.6852 9.12392V13.5002L41.4019 14.78L35.1642 14.7998ZM56.5696 7.79777H59.1097V4.40946H56.5696V7.79777ZM53.5798 14.8197V12.7576H54.5124V4.40946H53.5798V2.38708H60.0292L61.0809 3.38832V8.73271L60.0292 9.84004H59.3677L60.856 12.7576H61.7159V14.7998H59.6654L57.2311 9.8533H56.5366V12.7775H57.4692V14.8197H53.5798Z" fill="#18314F"/>
<path d="M15.9813 2.44675L14.9494 3.20928L15.3463 1.98923L14.3144 1.22006H15.5712L15.9681 0L16.365 1.22006H17.6879L16.6163 1.98923L17.0132 3.20928L15.9813 2.44675ZM19.4475 2.89764L18.2634 3.35516L18.9646 2.28761L18.1708 1.28637L19.3879 1.6179L20.0891 0.543721L20.1486 1.83009L21.3988 2.16826L20.2148 2.6523L20.2743 3.93867L19.4475 2.89764ZM11.7082 2.6523L10.5175 2.19478L11.7611 1.86324L11.8272 0.576875L12.5218 1.64443L13.7786 1.31289L12.9518 2.29424L13.6529 3.36179L12.4689 2.90427L11.642 3.91214L11.7082 2.6523ZM8.40078 4.21053L7.11751 4.09117L8.24864 3.4281L7.9642 2.14836L8.92996 2.9971L10.0611 2.33402L9.54514 3.5143L10.4911 4.36966L9.20778 4.25031L8.69183 5.43722L8.40078 4.21053ZM22.6953 4.30336L21.4121 4.42271L22.358 3.56734L21.8288 2.38707L22.9533 3.05015L23.9058 2.19478L23.628 3.44799L24.7591 4.11106L23.4825 4.26357L23.2047 5.51015L22.6953 4.30336ZM5.60934 6.53792L4.32607 6.7501L5.24553 5.83506L4.66342 4.67468L5.82101 5.25818L6.73385 4.33651L6.52218 5.62288L7.67977 6.20638L6.40311 6.41857L6.19144 7.6983L5.60934 6.53792ZM25.5132 6.41857L24.2366 6.19975L25.3611 5.62288L25.1362 4.33651L26.0887 5.3046L27.2463 4.72773L26.6708 5.88811L27.5837 6.80315L26.307 6.59097L25.7249 7.75135L25.5132 6.41857ZM3.50584 9.52839L2.34825 10.0456L3.00973 8.91173L2.1035 7.9569L3.38677 8.24202L4.04825 7.11479L4.17393 8.39453L5.42412 8.66639L4.26654 9.19022L4.3856 10.47L3.50584 9.52839ZM27.6829 9.28305L26.5187 8.71944L27.7821 8.43431L27.9078 7.1811L28.5693 8.31496L29.7665 8.0431L28.9066 8.9913L29.5681 10.1185L28.4436 9.60133L27.5903 10.5495L27.6829 9.28305ZM1.61401 12.5321L0.549027 11.8293L1.8323 11.7696L2.16304 10.5164L2.64591 11.7099L3.92918 11.6436L2.89728 12.4724L3.3537 13.6593L2.28872 12.9565L1.28327 13.7853L1.61401 12.5321ZM29.6276 13.0162L28.5626 13.719L29.0191 12.5321L28.0136 11.7033L29.2903 11.763L29.7665 10.6092L30.0973 11.8624L31.3805 11.9221L30.3023 12.5984L30.6397 13.8516L29.6276 13.0162ZM1.21712 16.378L0 15.9801L1.21712 15.5889V14.3025L1.98444 15.3369L3.20156 14.9391L2.44086 15.9735L3.20156 17.0145L1.98444 16.6233L1.21712 17.6577V16.378ZM29.9385 16.6564L28.7148 17.0543L29.4755 16.0133L28.7148 14.9789L29.9385 15.3767L30.6992 14.3423V15.622L31.9163 16.0199L30.6992 16.4045V17.6908L29.9385 16.6564ZM1.8323 20.2039L0.549027 20.1376L1.61401 19.4347L1.28327 18.1815L2.28872 18.9772L3.3537 18.2743L2.89728 19.501L3.90272 20.3232L2.64591 20.2636L2.18949 21.4505L1.8323 20.2039ZM29.2969 20.2901L28.0136 20.3498L29.0191 19.5276L28.5626 18.3075L29.6607 19.0104L30.6661 18.1815L30.3288 19.4347L31.4004 20.1376L30.0774 20.2238L29.7665 21.477L29.2969 20.2901ZM3.38677 23.7182L2.13658 23.9901L2.98988 23.0419L2.34825 21.8815L3.50584 22.3987L4.35914 21.4505L4.24008 22.7368L5.39767 23.254L4.14747 23.4994L4.02179 24.8255L3.38677 23.7182ZM27.7424 23.5922L26.4922 23.3203L27.6498 22.8032L27.5241 21.5168L28.3774 22.465L29.5416 21.9478L28.8802 23.075L29.7665 24.0232L28.5163 23.7447L27.8549 24.8719L27.7424 23.5922ZM5.79455 26.7087L4.63035 27.2922L5.21245 26.1318L4.29961 25.1969L5.57627 25.409L6.15837 24.2487L6.37004 25.5284L7.65331 25.7406L6.49572 26.3241L6.70739 27.6038L5.79455 26.7087ZM25.3611 26.3705L24.2035 25.7936L25.4868 25.5748L25.7051 24.2951L26.2805 25.4289L27.5572 25.1969L26.6377 26.1252L27.2198 27.3187L26.0623 26.7418L25.1362 27.6569L25.3611 26.3705ZM8.22879 28.5719L7.09767 27.9088L8.38093 27.7828L8.65214 26.5296L9.17471 27.69L10.4514 27.5707L9.50545 28.426L10.028 29.5864L8.9035 28.9233L7.93774 29.8384L8.22879 28.5719ZM22.9798 28.9963L21.8553 29.6593L22.3712 28.5122L21.4253 27.6569L22.7019 27.7828L23.2179 26.6158L23.509 27.8492L24.7856 27.9751L23.6545 28.6382L23.9323 29.8981L22.9798 28.9963ZM11.7346 30.1633L10.4844 29.8384L11.6751 29.3809L11.6156 28.0945L12.4358 29.1024L13.6265 28.6448L12.9253 29.7124L13.7455 30.7203L12.5019 30.3887L11.7942 31.4629L11.7346 30.1633ZM19.3879 30.3489L18.1377 30.6805L18.9315 29.6726L18.2304 28.5984L19.421 29.0559L20.2412 28.0481L20.1817 29.3344L21.3988 29.792L20.1486 30.1633L20.0891 31.4496L19.3879 30.3489ZM15.5447 30.7733H14.2681L15.3 30.0108L14.9031 28.7907L15.935 29.5533L16.9669 28.7907L16.5767 30.0108L17.6086 30.7733H16.3385L15.9416 32L15.5447 30.7733Z" fill="#18314F"/>
<path d="M18.5677 15.3701C18.9315 15.3701 19.3284 15.4032 19.6988 15.4298L17.6548 10.2047C17.2315 10.3373 16.8015 10.4501 16.3716 10.5429L17.1323 15.4298C17.538 15.39 17.9415 15.3701 18.3428 15.3701H18.5677ZM12.5019 11.0601L12.1315 16.5769C12.529 16.3958 12.9377 16.2408 13.3552 16.1127C13.7521 15.9934 14.1622 15.8873 14.5724 15.8077L13.8117 10.9474C13.3552 11.0336 12.9253 11.0336 12.5019 11.0601ZM18.5677 17.3262C18.1973 17.3262 17.8334 17.3593 17.4366 17.3858L17.5622 18.1218C18.2198 17.981 18.8622 17.7767 19.4805 17.5118C19.5694 17.486 19.6525 17.4432 19.7253 17.3858C19.4071 17.3461 19.0868 17.3262 18.7661 17.3262H18.5677ZM12.8657 18.3937L12.6805 18.4865C13.064 18.5395 13.4513 18.5594 13.8381 18.5462C14.1688 18.5462 14.5393 18.5462 14.9362 18.4865L14.8105 17.7505C14.1456 17.9105 13.4951 18.1256 12.8657 18.3937ZM17.3175 26.5562C17.0555 26.5653 16.7977 26.4885 16.5832 26.3373C16.4477 26.2485 16.332 26.1325 16.2432 25.9967C16.1544 25.861 16.0945 25.7083 16.0673 25.5483L15.2735 20.4426C15.0618 20.4758 14.8171 20.4758 14.612 20.5023C14.3565 20.5188 14.1002 20.5188 13.8447 20.5023C13.1953 20.5138 12.5463 20.4627 11.9066 20.3498L11.6288 24.2354C11.6001 24.5577 11.4456 24.8556 11.1988 25.0642C10.9499 25.2425 10.6514 25.3376 10.3455 25.3361H10.286C10.1165 25.3397 9.94797 25.3089 9.79065 25.2456C9.63332 25.1822 9.49042 25.0876 9.37053 24.9674C9.25064 24.8472 9.15625 24.704 9.09303 24.5463C9.02982 24.3885 8.99909 24.2197 9.0027 24.0497L9.88908 10.7882C9.77461 10.7614 9.66362 10.7213 9.55834 10.6689C9.29068 10.5529 9.05712 10.3701 8.87995 10.138C8.70278 9.90583 8.5879 9.63204 8.54628 9.34273C8.48701 9.04112 8.5031 8.7295 8.59312 8.43563C8.68315 8.14177 8.84431 7.8748 9.06223 7.65852C9.94862 6.83631 11.9926 6.10693 14.407 5.6693C15.4109 5.48617 16.4294 5.39517 17.4498 5.39744C18.3311 5.36015 19.2114 5.49296 20.0428 5.78865C20.3055 5.91755 20.5306 6.11221 20.6963 6.35382C20.862 6.59543 20.9627 6.87581 20.9887 7.16785C21.0337 7.46921 21.0048 7.77702 20.9046 8.06469C20.8043 8.35236 20.6357 8.61122 20.4132 8.8189L20.0428 9.09076L24.9377 21.5765C25.0063 21.7192 25.0419 21.8756 25.0419 22.034C25.0419 22.1924 25.0063 22.3488 24.9377 22.4915C24.7638 22.8058 24.478 23.0426 24.1373 23.1546C23.9821 23.2185 23.8156 23.2501 23.6478 23.2474C23.4911 23.2467 23.336 23.2152 23.1914 23.1546C23.0388 23.1005 22.9002 23.0129 22.7857 22.8982C22.6713 22.7835 22.5839 22.6445 22.5299 22.4915L21.1011 18.8247C20.4576 19.1884 19.7738 19.4755 19.0638 19.6801C18.673 19.8042 18.2755 19.9061 17.8731 19.9851L18.6669 25.0908C18.6927 25.2449 18.6867 25.4027 18.6492 25.5544C18.6116 25.7061 18.5433 25.8485 18.4486 25.9727C18.2398 26.2261 17.95 26.3995 17.6284 26.4633C17.5505 26.5231 17.4553 26.5557 17.3572 26.5562H17.3175Z" fill="#C72133"/>
<path d="M12.8989 9.78036C11.3444 9.78036 10.1273 9.40904 9.78991 8.79901C10.6665 9.27357 11.6608 9.48533 12.6541 9.40904C13.4725 9.41472 14.2897 9.34368 15.095 9.19685C17.2315 8.79901 18.9977 8.03647 19.7253 7.20763C19.3615 8.12267 17.4697 9.12391 15.095 9.56154C14.3891 9.7017 13.6713 9.77276 12.9518 9.77373L12.8989 9.78036ZM16.795 10.8479L17.4564 15.0054C17.8533 15.0054 18.2171 14.9722 18.5876 14.9722H19.1366L17.4234 10.6622L16.795 10.8479ZM18.5677 15.7679C17.9777 15.7658 17.3881 15.7968 16.8016 15.8608L15.9417 10.2644C16.5929 10.1397 17.2341 9.96682 17.8599 9.7472L20.3074 15.9138C19.7345 15.8023 19.1512 15.7533 18.5677 15.7679ZM12.8658 11.4314L12.5681 15.9801C12.8129 15.9204 13.0245 15.8276 13.2693 15.7679C13.5575 15.6691 13.8513 15.5872 14.1491 15.5226L13.4876 11.3983C13.2957 11.3983 13.0775 11.4314 12.8658 11.4314ZM11.7016 17.24L12.1315 10.6092C12.795 10.6093 13.4578 10.5672 14.116 10.4832L14.9759 16.0796C14.4533 16.1989 13.9374 16.3183 13.4479 16.4708C12.8435 16.6675 12.2606 16.9252 11.7082 17.24H11.7016ZM16.9934 17.0609C17.5179 16.9967 18.0459 16.9657 18.5743 16.9681C19.2889 16.9246 20.0048 17.0284 20.6778 17.2731C20.3703 17.5328 20.0215 17.739 19.6459 17.8831C18.8546 18.1913 18.0348 18.42 17.1985 18.5661L16.9934 17.0609ZM13.8514 18.9507C13.134 19.0055 12.4138 18.892 11.7479 18.6191C12.0314 18.3602 12.3645 18.1617 12.7269 18.0356C13.5075 17.6978 14.3243 17.4508 15.1611 17.2996L15.3992 18.8579C14.8969 18.922 14.3909 18.953 13.8845 18.9507H13.8514ZM16.4113 25.4886C16.428 25.5938 16.4667 25.6942 16.5249 25.7833C16.583 25.8725 16.6593 25.9483 16.7487 26.0058C16.917 26.1006 17.1049 26.1551 17.2977 26.1649C17.3903 26.1649 17.4498 26.1318 17.5094 26.1318C17.738 26.0938 17.9449 25.9736 18.0915 25.7936C18.2164 25.6165 18.2707 25.3988 18.2436 25.1836L17.3903 19.7132C17.9062 19.6317 18.4149 19.5098 18.9117 19.3485C19.7139 19.1237 20.4753 18.7723 21.1673 18.3075V18.2743L22.7813 22.3655C22.8222 22.4698 22.8837 22.5647 22.9621 22.6445C23.0406 22.7242 23.1344 22.7872 23.2378 22.8297C23.3361 22.8629 23.4385 22.8829 23.542 22.8894C23.6651 22.883 23.7872 22.8629 23.9059 22.8297C24.1548 22.7458 24.3628 22.5705 24.488 22.339C24.5319 22.2433 24.5546 22.1393 24.5546 22.034C24.5546 21.9287 24.5319 21.8246 24.488 21.729L19.5732 8.98467C19.778 8.87207 19.9709 8.73876 20.1487 8.58682C20.3182 8.43033 20.4485 8.23586 20.5287 8.01929C20.609 7.80272 20.6371 7.57019 20.6107 7.34068C20.5842 7.11117 20.504 6.89117 20.3766 6.69865C20.2492 6.50613 20.0781 6.34654 19.8775 6.23291C19.0987 5.94856 18.2708 5.82453 17.4432 5.86822C16.4235 5.87926 15.4053 5.95011 14.3938 6.0804C12.0125 6.5114 10.0611 7.24078 9.27396 7.97679C9.11071 8.14279 8.98913 8.34528 8.91921 8.56759C8.84929 8.7899 8.83304 9.02567 8.87179 9.25551C8.91054 9.48534 9.00319 9.70267 9.14211 9.8896C9.28103 10.0765 9.46224 10.2277 9.67084 10.3307C9.85102 10.423 10.0457 10.4836 10.2463 10.5097L9.35995 24.0829C9.34505 24.1901 9.35654 24.2993 9.39344 24.401C9.43034 24.5027 9.49151 24.5938 9.57162 24.6664C9.75618 24.8566 10.0081 24.9662 10.2728 24.9714C10.4833 24.9856 10.6913 24.9193 10.8549 24.7857C10.9373 24.7193 11.0042 24.6356 11.0511 24.5406C11.0979 24.4455 11.1235 24.3414 11.1261 24.2354L11.437 19.8326C12.1871 20.0596 12.969 20.1626 13.7522 20.1376C14.0194 20.1449 14.2868 20.1338 14.5526 20.1044L15.558 20.0116L16.4113 25.4886ZM17.3043 26.9275C16.9685 26.9303 16.6393 26.8334 16.3584 26.649C16.1815 26.5332 16.0311 26.3812 15.917 26.2029C15.803 26.0246 15.728 25.8241 15.6969 25.6146L14.9693 20.8802C14.8685 20.8966 14.7658 20.8966 14.665 20.8802C14.4014 20.9078 14.1363 20.9189 13.8712 20.9134C13.3308 20.9203 12.7908 20.8804 12.2572 20.794L12.0125 24.242C12.0069 24.4546 11.9549 24.6634 11.86 24.8536C11.7652 25.0438 11.6298 25.2107 11.4634 25.3427C11.1602 25.5868 10.7807 25.716 10.3919 25.7074H10.3323C10.1013 25.7119 9.87171 25.6689 9.65784 25.5811C9.44397 25.4933 9.2503 25.3625 9.08874 25.1969C8.93804 25.0458 8.82162 24.864 8.74742 24.6637C8.67322 24.4634 8.64299 24.2495 8.65878 24.0365L9.51209 11.08C9.47901 11.08 9.47901 11.08 9.45256 11.08C9.12739 10.9271 8.84321 10.6989 8.62351 10.4141C8.40381 10.1293 8.25491 9.79611 8.18913 9.44219C8.12368 9.08493 8.1461 8.71706 8.25444 8.37044C8.36279 8.02382 8.5538 7.70891 8.81092 7.45296C9.72376 6.63075 11.8273 5.80854 14.3277 5.37754C15.3542 5.19739 16.3944 5.10643 17.4366 5.10568C18.3709 5.06991 19.3031 5.21628 20.1817 5.53668C20.497 5.69294 20.7681 5.92594 20.9704 6.21437C21.1726 6.50281 21.2994 6.83747 21.3393 7.18774C21.3921 7.55438 21.3526 7.92844 21.2244 8.27587C21.0961 8.6233 20.8832 8.93306 20.6051 9.17696C20.5842 9.22207 20.5494 9.25926 20.5059 9.28305L25.2421 21.4173C25.3162 21.6196 25.3492 21.8347 25.339 22.05C25.3287 22.2652 25.2755 22.4763 25.1825 22.6705C24.9634 23.0697 24.6056 23.3741 24.1771 23.5259C23.9862 23.6132 23.7782 23.6563 23.5685 23.6519C23.3709 23.6513 23.1745 23.62 22.9864 23.5591C22.7835 23.4837 22.5993 23.3653 22.4463 23.212C22.2933 23.0586 22.1752 22.8739 22.1 22.6705L20.8234 19.4016C20.2719 19.6652 19.7014 19.8869 19.1168 20.0647C18.8257 20.1618 18.5299 20.2437 18.2304 20.31L18.9646 25.0775C19.0003 25.2867 18.9917 25.5011 18.9393 25.7067C18.8868 25.9124 18.7918 26.1046 18.6603 26.271C18.3972 26.5913 18.0292 26.8075 17.6218 26.8811C17.5352 26.9023 17.4464 26.9134 17.3572 26.9142L17.3043 26.9275Z" fill="#F7F5F5"/>
</svg>
