<svg width="146" height="146" viewBox="0 0 146 146" fill="none" xmlns="http://www.w3.org/2000/svg">
<g filter="url(#filter0_d)">
<path d="M23.8829 76.3488V35.5035H32.0649C33.5186 17.8929 48.4609 4 66.6164 4C84.7719 4 99.7143 17.8929 101.168 35.5035H109.35V76.3468H23.8829V76.3488Z" fill="#E7E8E8"/>
<path d="M123.47 101.526V87.221C123.47 86.0886 122.861 85.0434 121.871 84.4772L70.5995 55.1711C69.6097 54.6049 68.39 54.6049 67.4003 55.1711L16.1289 84.4792C15.1391 85.0454 14.5293 86.0906 14.5293 87.223V101.528C14.5293 102.66 15.1391 103.705 16.1289 104.271L67.4003 133.576C68.39 134.142 69.6097 134.142 70.5995 133.576L121.871 104.269C122.861 103.703 123.47 102.658 123.47 101.526Z" fill="#E7E8E8"/>
<path d="M4 104.152C4 87.4781 4 70.8039 4 54.1296C47.3333 54.1296 90.6667 54.1296 134 54.1296C134 70.8039 134 87.4781 134 104.152C91.1945 94.68 46.8055 94.68 4 104.152Z" fill="#E7E8E8"/>
<path d="M19.0043 99.8824V88.8658C19.0043 88.2997 19.3082 87.7771 19.8041 87.494L68.2002 59.8309C68.696 59.5478 69.3039 59.5478 69.7998 59.8309L118.196 87.494C118.692 87.7771 118.996 88.2997 118.996 88.8658V99.8824C118.996 100.449 118.692 100.971 118.196 101.254L69.7998 128.917C69.3039 129.2 68.696 129.2 68.2002 128.917L19.8041 101.254C19.3102 100.971 19.0043 100.449 19.0043 99.8824Z" fill="white"/>
<path d="M24.375 97.216V62.4303C24.375 62.1135 24.545 61.8205 24.8229 61.6622L68.5521 63.9328C68.8301 63.7744 69.17 63.7744 69.4479 63.9328L113.177 61.6622C113.455 61.8205 113.625 62.1135 113.625 62.4303V97.216C113.625 97.5327 113.455 97.8257 113.177 97.9841L69.4479 122.981C69.17 123.139 68.8301 123.139 68.5521 122.981L24.8229 97.9821C24.547 97.8237 24.375 97.5327 24.375 97.216Z" fill="#E7E8E8"/>
<path d="M83.5205 114.021L77.408 98.7681C77.498 98.6473 77.582 98.5226 77.6579 98.3939C78.9856 96.1906 78.2538 93.3281 76.0283 92.0136L75.7984 91.8771L75.5465 91.788C74.3308 91.3643 73.0591 91.1486 71.7694 91.1486C71.6074 91.1486 71.4475 91.1525 71.2855 91.1585C69.8039 91.1763 68.3142 91.3129 66.8886 91.5623C65.093 91.8513 60.6821 92.7421 58.5146 94.7673L58.4547 94.8227L58.3987 94.8821C58.1088 95.1889 57.8608 95.5314 57.6629 95.9075C56.5991 97.9168 57.171 100.352 58.9026 101.712L57.8808 117.923C57.8028 118.984 58.1927 120.023 58.9505 120.773L58.9865 120.807C59.7324 121.52 60.7121 121.922 61.7479 121.941H61.8858C62.1158 121.941 62.3437 121.92 62.5676 121.88L70.7756 124.653L72.8331 123.297C73.337 123.097 73.8009 122.795 74.1968 122.399L79.0516 119.202C79.2855 119.245 79.5215 119.269 79.7594 119.269H79.8194C81.289 119.249 82.6527 118.449 83.3765 117.184L83.4345 117.081L83.4845 116.975C83.9164 116.036 83.9284 114.965 83.5205 114.021Z" fill="white"/>
<path d="M81.041 115.042L74.2107 97.996C74.4886 97.8435 74.7506 97.6654 74.9965 97.4674C75.1345 97.3387 75.2545 97.1923 75.3524 97.0299C75.9223 96.0837 75.6104 94.8583 74.6546 94.2941C73.5989 93.9259 72.4791 93.7636 71.3594 93.815C70.0058 93.8289 68.6541 93.9516 67.3184 94.1832C64.0952 94.7019 61.4239 95.6996 60.3561 96.6973C60.2322 96.828 60.1262 96.9765 60.0402 97.1368C59.5243 98.1128 59.9042 99.3183 60.89 99.8291C61.1519 99.9281 61.4219 100.005 61.6958 100.059L60.5581 118.113C60.5361 118.402 60.6441 118.685 60.85 118.891C61.1039 119.134 61.4439 119.273 61.7978 119.281H61.8578C62.1477 119.287 62.4316 119.196 62.6636 119.021C62.8935 118.841 63.0335 118.572 63.0455 118.283L63.4394 112.398C64.4611 112.699 65.5269 112.837 66.5926 112.807H67.6003C68.0442 112.788 68.4961 112.699 68.96 112.699L70.1077 120.009C70.1497 120.296 70.3157 120.552 70.5616 120.708C70.7796 120.843 71.0315 120.912 71.2874 120.908H71.5594C71.8653 120.86 72.1452 120.704 72.3452 120.469C72.5311 120.243 72.6091 119.948 72.5571 119.661L71.4094 112.35C72.0852 112.21 72.7791 112.031 73.4249 111.841C74.5266 111.55 75.5704 111.081 76.5182 110.456H76.5681L78.7636 115.951C78.8656 116.224 79.0835 116.438 79.3574 116.539C79.4934 116.588 79.6354 116.612 79.7813 116.608C80.3032 116.6 80.7831 116.321 81.041 115.87C81.161 115.609 81.161 115.306 81.041 115.042ZM64.2152 100.261C65.125 100.253 66.0327 100.193 66.9345 100.081L68.0722 107.502C67.3464 107.653 66.6326 107.821 65.9867 108.021C65.1549 108.27 64.3511 108.605 63.5893 109.018L64.2152 100.261ZM66.5026 111.313C65.5169 111.38 64.5291 111.24 63.6013 110.903C63.9952 110.565 64.4451 110.299 64.931 110.115C66.0067 109.668 67.1285 109.333 68.2762 109.117L68.5981 111.192C67.9023 111.269 67.2024 111.309 66.5026 111.313ZM70.5216 107.164L69.3539 99.6727C70.2397 99.4866 71.1155 99.2491 71.9733 98.964L75.2585 107.233C74.4806 107.092 73.6908 107.025 72.901 107.033C72.1052 107.035 71.3114 107.078 70.5216 107.164ZM74.3607 109.816C73.3089 110.256 72.2152 110.59 71.0955 110.814L70.7736 108.69C71.4854 108.613 72.2032 108.573 72.919 108.571C73.8888 108.516 74.8586 108.658 75.7703 108.991C75.3544 109.345 74.8766 109.626 74.3607 109.816Z" fill="#C62332"/>
<path fill-rule="evenodd" clip-rule="evenodd" d="M86.4897 98.7305L85.47 101.797H82.2028L84.8461 103.703L83.8464 106.77L86.4897 104.881L89.1331 106.77L88.1133 103.703L90.7567 101.797H87.4895L86.4897 98.7305Z" fill="white"/>
<path fill-rule="evenodd" clip-rule="evenodd" d="M97.5151 95.3867L96.4954 98.4531H93.2281L95.8715 100.359L94.8718 103.426L97.5151 101.537L100.158 103.426L99.1387 100.359L101.784 98.4531H98.5168L97.5151 95.3867Z" fill="white"/>
<path fill-rule="evenodd" clip-rule="evenodd" d="M51.5102 98.7305L52.53 101.797H55.7972L53.1538 103.703L54.1536 106.77L51.5102 104.881L48.8669 106.77L49.8866 103.703L47.2433 101.797H50.5105L51.5102 98.7305Z" fill="white"/>
<path fill-rule="evenodd" clip-rule="evenodd" d="M40.485 95.388L41.5048 98.4544H44.772L42.1286 100.361L43.1284 103.427L40.485 101.539L37.8417 103.427L38.8614 100.361L36.2161 98.4544H39.4833L40.485 95.388Z" fill="white"/>
<path d="M129.525 99.7222C89.6669 90.901 48.333 90.901 8.47485 99.7222C8.47485 86.0015 8.47485 72.2828 8.47485 58.5621C48.8249 58.5621 89.175 58.5621 129.525 58.5621C129.525 72.2828 129.525 86.0015 129.525 99.7222Z" fill="white"/>
<path d="M96.7653 39.9356C96.7933 39.4011 96.8113 38.8647 96.8113 38.3242C96.8113 21.8163 83.2946 8.43213 66.6187 8.43213C49.9448 8.43213 36.4261 21.8143 36.4261 38.3242C36.4261 38.8647 36.4421 39.4031 36.4701 39.9356H28.3601V71.9182H104.877V39.9356H96.7653Z" fill="white"/>
<path d="M14.6694 93.6163V87.6359L15.1853 87.5627C15.5732 87.5072 15.9631 87.4538 16.353 87.4003L16.363 69.1226L14.6734 69.1721V63.2056L15.2713 63.2036C19.1383 63.1897 23.0054 63.1798 26.8724 63.1699H27.1584L27.3383 63.3897C28.0441 64.2468 28.76 65.106 29.4658 65.9453L29.6058 66.1116L29.5798 76.9163L29.4498 77.0787C28.684 78.0328 27.9142 79.0028 27.1604 79.961L26.9984 80.1688L26.7345 80.1886C24.9169 80.3272 23.0734 80.4776 21.2458 80.636L21.2378 86.7629C21.5757 86.7213 21.9117 86.6798 22.2496 86.6382L22.9234 86.5551L22.9134 92.3256L22.4015 92.4008C20.0761 92.7374 17.7107 93.1076 15.3693 93.4995L14.6694 93.6163ZM15.8691 88.6673V92.2128C17.8167 91.8901 19.7782 91.5852 21.7157 91.3022L21.7217 87.9012C21.3858 87.9428 21.0499 87.9843 20.7139 88.0259L20.0381 88.111L20.0481 79.5492L20.594 79.5017C22.5155 79.3334 24.461 79.1731 26.3766 79.0246C27.0384 78.1833 27.7102 77.336 28.3821 76.5006L28.406 66.5392C27.8042 65.8226 27.1944 65.0901 26.5925 64.3597C23.0194 64.3696 19.4483 64.3795 15.8751 64.3913V67.9507L17.5647 67.9012L17.5527 88.4396L17.0349 88.5089C16.6449 88.5604 16.257 88.6138 15.8691 88.6673ZM20.0501 76.1641L20.0601 67.8319L20.642 67.8161C22.1896 67.7745 23.7372 67.7349 25.2828 67.6973L25.8987 67.6814L25.8827 75.8097L25.3188 75.8434C23.7712 75.9325 22.2136 76.0275 20.688 76.1245L20.0501 76.1641ZM21.2598 68.986L21.2518 74.8971C22.3875 74.8259 23.5393 74.7546 24.687 74.6893L24.699 68.8989C23.5532 68.9266 22.4055 68.9563 21.2598 68.986Z" fill="#E7E8E8"/>
<path d="M27.5002 91.7027L27.5142 86.0331L28.0481 85.9756C28.418 85.9361 28.7859 85.8984 29.1558 85.8588C30.7574 78.6392 32.457 71.1563 34.2086 63.61L34.3146 63.1507L38.6295 63.1428L38.7355 63.6061C40.3011 70.4753 41.9407 77.5504 43.6103 84.6434C44.0622 84.6137 44.5121 84.586 44.9639 84.5582L45.6018 84.5187L45.5878 89.8933L45.0339 89.9349C42.6225 90.111 40.1771 90.3189 37.7637 90.5505L37.1039 90.6139L37.1199 85.1224L37.6697 85.0789C38.0476 85.0492 38.4256 85.0195 38.8015 84.9898L38.6715 84.4593C37.1739 84.5681 35.6522 84.6869 34.1326 84.8136L34.0046 85.3956C34.3825 85.362 34.7585 85.3283 35.1364 85.2947L35.7902 85.2372L35.7742 90.7505L35.2383 90.8059C32.8889 91.0514 30.5135 91.3246 28.1761 91.6195L27.5002 91.7027ZM28.7119 87.102L28.7039 90.3545C30.6535 90.113 32.623 89.8854 34.5785 89.6795L34.5865 86.5339C34.1566 86.5715 33.7287 86.6111 33.2988 86.6507L32.481 86.7259L33.1509 83.7011L33.5907 83.6635C35.4343 83.5071 37.2858 83.3645 39.0934 83.2359L39.5993 83.2002L40.2991 86.0647L39.5953 86.1182C39.1694 86.1498 38.7415 86.1835 38.3156 86.2172L38.3076 89.3034C40.3291 89.1133 42.3706 88.9411 44.3901 88.7887L44.3981 85.7816C43.9922 85.8074 43.5863 85.8331 43.1804 85.8608L42.6725 85.8945L42.5565 85.4035C40.8829 78.3027 39.2394 71.2157 37.6697 64.3306L35.2683 64.3345C33.5208 71.867 31.8272 79.3321 30.2316 86.5319L30.1396 86.9516L29.7077 86.9951C29.3778 87.0328 29.0439 87.0664 28.7119 87.102ZM33.8447 80.5416L34.0246 79.7636C34.6325 77.1307 35.2643 74.4108 35.9042 71.6769L36.51 69.0896L37.0739 71.6868C37.6477 74.3237 38.2196 76.9427 38.7935 79.5478L38.9434 80.2269L38.2436 80.2684C37.0439 80.3377 35.8462 80.4129 34.6485 80.4901L33.8447 80.5416ZM36.468 74.5335C36.0981 76.1231 35.7302 77.7009 35.3723 79.2509C36.0721 79.2054 36.772 79.1638 37.4718 79.1203C37.1379 77.5979 36.804 76.0677 36.468 74.5335Z" fill="#E7E8E8"/>
<path d="M45.5259 89.8973L45.5399 84.5227L46.1017 84.489C46.4796 84.4673 46.8556 84.4455 47.2335 84.4237L47.2734 68.4799L45.5819 68.5017L45.5959 63.131H46.1937C50.1287 63.1251 54.0658 63.1211 58.0008 63.1191H58.2607L58.4387 63.3072C59.0825 63.9842 59.7264 64.6593 60.3682 65.3323L60.5322 65.5046L60.5182 76.6735L60.3742 76.8398C59.7284 77.5842 59.0825 78.3324 58.4347 79.0827L58.2607 79.2866L57.9908 79.2926C57.8868 79.2945 57.7849 79.2965 57.6829 79.2985C58.4027 80.8446 59.1225 82.3887 59.8424 83.9308C60.2343 83.9229 60.6282 83.913 61.0201 83.905L61.6319 83.8932L61.6259 89.1451L61.0401 89.1589C59.8044 89.1886 58.5387 89.2262 57.281 89.2698L56.8771 89.2836L56.7131 88.9174C55.1515 85.459 53.7579 82.3511 52.4562 79.4331C52.3562 79.4371 52.2542 79.439 52.1522 79.443L52.1422 84.1842C52.4982 84.1683 52.8561 84.1545 53.212 84.1406L53.8378 84.1149L53.8278 89.4084L53.258 89.4361C50.9026 89.5489 48.5171 89.6895 46.1697 89.8538L45.5259 89.8973ZM46.7356 85.6431L46.7276 88.6225C48.6851 88.4898 50.6666 88.373 52.6301 88.276L52.6361 85.3502C52.2802 85.366 51.9243 85.3799 51.5684 85.3957L50.9405 85.4234L50.9565 78.2909L51.5364 78.2731C51.9663 78.2592 52.3962 78.2453 52.8261 78.2335L53.23 78.2216L53.3939 78.5878C54.6956 81.5077 56.0893 84.6137 57.6469 88.0682C58.5767 88.0365 59.5104 88.0088 60.4302 87.985L60.4342 85.1067C60.1163 85.1126 59.7984 85.1205 59.4804 85.1284L59.0865 85.1383L58.9206 84.784C58.0168 82.8519 57.115 80.9158 56.2132 78.9738L55.8313 78.1523L56.7431 78.1325C57.061 78.1246 57.381 78.1186 57.6989 78.1127C58.2407 77.4852 58.7806 76.8596 59.3205 76.236L59.3325 65.9797C58.8026 65.4234 58.2727 64.8671 57.7429 64.3109C54.0938 64.3128 50.4427 64.3168 46.7936 64.3227L46.7856 67.306L48.4771 67.2862L48.4312 85.556L47.8653 85.5877C47.4894 85.5996 47.1115 85.6214 46.7356 85.6431ZM50.9625 75.3511L50.9805 67.2545L51.5724 67.2486C53.122 67.2328 54.6716 67.2209 56.2192 67.211L56.8251 67.207L56.8111 75.2324L56.2232 75.2423C54.6816 75.268 53.118 75.3017 51.5784 75.3373L50.9625 75.3511ZM52.1782 68.4304L52.1662 74.1357C53.314 74.1099 54.4697 74.0862 55.6154 74.0644L55.6254 68.4027C54.4757 68.4106 53.326 68.4186 52.1782 68.4304Z" fill="#E7E8E8"/>
<path d="M76.5562 89.1628L75.9423 89.149C71.3775 89.046 66.7466 89.0401 62.1797 89.1331L61.5679 89.145L61.5719 83.8951L62.1617 83.8852C62.5316 83.8792 62.8995 83.8733 63.2695 83.8674L63.2795 68.3631C62.9155 68.365 62.5516 68.365 62.1897 68.367L61.5879 68.369L61.5919 63.1171H62.1917C64.5531 63.1171 66.9166 63.1151 69.278 63.1151H69.8778V68.3532H69.278H68.1842L68.1822 83.8278C69.338 83.8278 70.4957 83.8298 71.6394 83.8396L71.6354 78.0592L72.2392 78.0631C73.4769 78.0711 74.7146 78.0849 75.9543 78.1008L76.5462 78.1087L76.5562 89.1628ZM68.6721 87.88C70.9036 87.88 73.137 87.9038 75.3545 87.9493L75.3465 79.2826C74.5087 79.2727 73.6729 79.2628 72.8351 79.2569L72.8391 85.0334H72.2332C70.7016 85.0195 69.136 85.0136 67.5824 85.0175L66.9805 85.0195L66.9825 67.1674H68.6761V64.3049C66.7146 64.3049 64.7511 64.3049 62.7896 64.3068L62.7876 67.1773C63.1515 67.1753 63.5154 67.1753 63.8793 67.1733L64.4812 67.1713L64.4692 85.0393L63.8773 85.0472C63.5094 85.0512 63.1395 85.0571 62.7716 85.0631L62.7696 87.9335C64.7271 87.8979 66.7006 87.88 68.6721 87.88Z" fill="#E7E8E8"/>
<path d="M94.6297 90.1107L93.9799 90.0592C91.5745 89.8692 89.1251 89.7049 86.7037 89.5702L86.1398 89.5386L86.1278 84.2233L86.7577 84.253C87.1016 84.2688 87.4455 84.2867 87.7894 84.3025L87.6655 83.8076C86.1398 83.7383 84.6102 83.6769 83.1046 83.6235L82.9926 84.0946C83.4005 84.1105 83.8084 84.1263 84.2163 84.1421L84.7902 84.1659L84.8002 89.4693L84.1703 89.4396C81.8149 89.3267 79.4275 89.2377 77.0761 89.1763L76.4922 89.1605L76.4862 83.9066L77.1001 83.9204C77.454 83.9283 77.8079 83.9363 78.1618 83.9442C79.9474 76.6553 81.567 69.9879 83.1066 63.578L83.2165 63.1207L87.5235 63.1246L87.6335 63.5799C89.445 71.0906 91.0846 77.9618 92.6402 84.5717C93.1121 84.6014 93.584 84.6311 94.0579 84.6628L94.6157 84.7004L94.6297 90.1107ZM87.3355 88.4161C89.365 88.5329 91.4085 88.6695 93.426 88.8259L93.418 85.8149C92.9861 85.7872 92.5522 85.7595 92.1204 85.7338L91.6745 85.706L91.5725 85.2745C90.0169 78.6685 88.3813 71.8072 86.5757 64.3124L84.1643 64.3104C82.6227 70.7184 81.0031 77.3917 79.2135 84.6905L79.0996 85.1557L78.6157 85.1438C78.3058 85.1359 77.9978 85.128 77.6879 85.1201L77.6919 88.0024C79.6534 88.0578 81.6349 88.1311 83.6005 88.2201L83.5945 85.3042C83.1366 85.2864 82.6787 85.2685 82.2208 85.2527L81.491 85.227L82.1628 82.4021L82.6547 82.4179C84.4702 82.4793 86.3258 82.5525 88.1693 82.6396L88.6152 82.6614L89.341 85.5714L88.5332 85.5299C88.1313 85.5081 87.7314 85.4883 87.3295 85.4705L87.3355 88.4161ZM87.9434 79.7336L87.1656 79.7058C85.9659 79.6643 84.7642 79.6247 83.5625 79.591L82.8226 79.5693L82.9966 78.8566C83.6125 76.3445 84.2263 73.8244 84.8401 71.2965L85.438 68.8299L86.0079 71.3024C86.5957 73.8521 87.1816 76.4098 87.7694 78.9793L87.9434 79.7336ZM84.3383 78.425C85.0361 78.4468 85.7319 78.4686 86.4298 78.4923C86.0898 77.0057 85.7479 75.5209 85.408 74.0402C85.0521 75.5031 84.6942 76.9661 84.3383 78.425Z" fill="#E7E8E8"/>
<path d="M104.999 91.1167L104.331 91.0415C101.992 90.7822 99.6125 90.5426 97.2591 90.3348L96.7152 90.2853L96.6992 84.8473L97.3471 84.8968C97.695 84.9225 98.0449 84.9502 98.3928 84.976L98.3748 78.7224C96.8832 75.3927 95.3636 72.0531 93.734 68.5294C93.3141 68.5234 92.8922 68.5175 92.4723 68.5116L91.8824 68.5036L91.8684 63.131H92.4703C94.9377 63.1349 97.407 63.1389 99.8744 63.1429L100.472 63.1448L100.488 68.6363L99.8764 68.6264C99.5805 68.6204 99.2846 68.6165 98.9887 68.6105C99.5805 69.9626 100.166 71.3087 100.74 72.6351C101.302 71.3048 101.86 69.9784 102.408 68.6719L101.11 68.6482L101.094 63.1468L101.696 63.1488C103.999 63.1528 106.301 63.1587 108.604 63.1646L109.202 63.1666L109.216 68.8144L107.637 68.7788C106.231 72.0927 104.767 75.4857 103.28 78.8709L103.298 85.3857C103.682 85.4194 104.063 85.455 104.447 85.4907L104.989 85.5402L104.999 91.1167ZM97.9129 89.2005C99.8724 89.3786 101.846 89.5746 103.797 89.7884L103.789 86.625C103.408 86.5894 103.026 86.5557 102.644 86.522L102.1 86.4726L102.078 78.6274L102.128 78.5125C103.685 74.9651 105.219 71.4117 106.687 67.9474L106.845 67.5752L108.012 67.6009L108.004 64.3524C106.103 64.3484 104.199 64.3445 102.296 64.3385L102.304 67.4841L104.185 67.5198L103.851 68.3235C103.022 70.313 102.164 72.356 101.298 74.391L100.748 75.6837L100.192 74.393C99.3286 72.3817 98.4288 70.311 97.517 68.2384L97.1451 67.3931L98.0769 67.4089C98.4788 67.4149 98.8827 67.4228 99.2846 67.4287L99.2766 64.3326C97.2091 64.3286 95.1396 64.3247 93.0721 64.3227L93.0801 67.3337C93.43 67.3376 93.7819 67.3436 94.1319 67.3475L94.5098 67.3535L94.6677 67.694C96.3773 71.3879 97.9649 74.876 99.5225 78.3542L99.5745 78.469L99.5965 86.2627L98.9467 86.2112C98.5988 86.1835 98.2508 86.1558 97.9029 86.1301L97.9129 89.2005Z" fill="#E7E8E8"/>
<path d="M119.628 93.1122L119.296 93.0587C116.934 92.6846 114.531 92.3302 112.155 92.0075L111.906 91.9739L111.756 91.772C110.95 90.6931 110.126 89.6043 109.306 88.5353L109.184 88.3769L109.172 82.6836L109.83 82.7449C111.042 82.8578 112.287 82.9766 113.529 83.1033L114.067 83.1567L114.073 86.5121C115.311 86.6586 116.56 86.815 117.802 86.9734L117.796 80.4149C115.827 80.2427 113.821 80.0764 111.828 79.922L111.56 79.9022L111.398 79.6904C110.706 78.7936 109.996 77.883 109.288 76.9863L109.162 76.8259L109.138 65.9262L109.28 65.7599C109.944 64.9799 110.616 64.1821 111.282 63.3883L111.462 63.1725H111.746C114.497 63.1805 117.25 63.1884 120.002 63.1963H120.289L120.469 63.42C121.169 64.289 121.873 65.1739 122.561 66.0509L122.687 66.2112V72.5876L122.057 72.5559C120.827 72.4945 119.596 72.4371 118.364 72.3817L117.792 72.356L117.788 69.0302C116.54 68.9966 115.293 68.9629 114.043 68.9312L114.053 74.393C116.056 74.5098 118.06 74.6345 120.019 74.7651L120.297 74.783L120.463 75.0047C121.173 75.9608 121.883 76.9308 122.575 77.885L122.687 78.0394L122.689 89.5429L122.549 89.7092C121.669 90.7505 120.761 91.8116 119.852 92.8608L119.628 93.1122ZM112.569 90.8653C114.761 91.1642 116.974 91.4909 119.154 91.8353C119.938 90.9286 120.719 90.0141 121.483 89.1134L121.481 78.4235C120.881 77.596 120.269 76.7606 119.656 75.9311C117.604 75.7965 115.507 75.6659 113.413 75.5451L112.849 75.5115L112.835 67.7118L113.451 67.7276C115.101 67.7692 116.748 67.8128 118.398 67.8583L118.98 67.8741L118.984 71.2197C119.816 71.2573 120.647 71.2969 121.479 71.3384V66.619C120.893 65.8747 120.297 65.1244 119.702 64.3821C117.14 64.3742 114.579 64.3663 112.017 64.3603C111.458 65.0294 110.892 65.7005 110.332 66.3577L110.354 76.4161C110.968 77.1941 111.582 77.98 112.181 78.758C114.279 78.9203 116.382 79.0965 118.444 79.2787L118.99 79.3281L118.998 88.3274L118.318 88.2384C116.682 88.0246 115.027 87.8187 113.397 87.6286L112.869 87.5673L112.863 84.2297C112.027 84.1465 111.194 84.0653 110.37 83.9881L110.38 87.9751C111.114 88.9312 111.85 89.9012 112.569 90.8653Z" fill="#E7E8E8"/>
<path d="M15.2693 92.9128C15.2693 91.3252 15.2693 89.7375 15.2693 88.1499C15.8291 88.0707 16.391 87.9935 16.9509 87.9183C16.9549 81.4489 16.9569 74.9795 16.9609 68.5102C16.397 68.526 15.8351 68.5438 15.2713 68.5597C15.2713 66.972 15.2713 65.3844 15.2713 63.7967C19.1383 63.7848 23.0054 63.773 26.8724 63.7631C27.5823 64.6242 28.2941 65.4774 29.0039 66.3227C28.9959 69.7831 28.9879 73.2454 28.9779 76.7058C28.2141 77.6579 27.4483 78.62 26.6845 79.594C24.669 79.7484 22.6555 79.9147 20.644 80.0909C20.64 82.5397 20.638 84.9865 20.634 87.4352C21.1958 87.364 21.7577 87.2947 22.3195 87.2274C22.3176 88.7556 22.3156 90.2839 22.3116 91.8141C19.9621 92.1546 17.6147 92.5209 15.2693 92.9128ZM25.3008 68.2884C23.7532 68.3261 22.2076 68.3657 20.66 68.4072C20.656 70.7808 20.654 73.1543 20.65 75.5299C22.1936 75.4309 23.7392 75.3378 25.2848 75.2468C25.2908 72.9267 25.2948 70.6086 25.3008 68.2884Z" fill="#17314F"/>
<path d="M28.1121 86.568C28.624 86.5145 29.1359 86.4611 29.6478 86.4076C31.3593 78.6852 33.0749 71.1409 34.7925 63.7451C35.9122 63.7431 37.0319 63.7411 38.1517 63.7391C39.8153 71.036 41.4768 78.2041 43.1424 85.2713C43.7623 85.2298 44.3821 85.1902 45.002 85.1526C44.998 86.5502 44.994 87.9458 44.99 89.3434C42.5606 89.5216 40.1332 89.7274 37.7078 89.961C37.7118 88.5318 37.7158 87.1025 37.7198 85.6712C38.3296 85.6217 38.9415 85.5742 39.5513 85.5267C39.4134 84.9606 39.2754 84.3944 39.1354 83.8282C37.3039 83.9589 35.4703 84.1014 33.6408 84.2558C33.5068 84.8556 33.3748 85.4574 33.2409 86.0592C33.8887 85.9998 34.5366 85.9405 35.1864 85.885C35.1824 87.3282 35.1784 88.7713 35.1744 90.2144C32.813 90.4599 30.4556 90.7311 28.0981 91.03C28.1061 89.5414 28.1101 88.0547 28.1121 86.568ZM36.4881 71.812C35.8622 74.4864 35.2344 77.1807 34.6085 79.8967C35.8082 79.8175 37.0079 79.7443 38.2077 79.675C37.6358 77.0678 37.0619 74.4488 36.4881 71.812Z" fill="#17314F"/>
<path d="M46.1937 63.7253C50.1287 63.7194 54.0637 63.7154 58.0008 63.7134C58.6446 64.3905 59.2884 65.0655 59.9323 65.7406C59.9283 69.3118 59.9243 72.883 59.9183 76.4542C59.2724 77.2005 58.6246 77.9488 57.9788 78.6991C57.5709 78.707 57.163 78.7169 56.7551 78.7248C57.6568 80.6648 58.5586 82.6009 59.4624 84.533C59.9863 84.5211 60.5081 84.5092 61.032 84.4993C61.03 85.8534 61.03 87.2094 61.028 88.5655C59.7723 88.5951 58.5166 88.6328 57.2629 88.6763C55.7873 85.408 54.3137 82.1297 52.844 78.8278C52.4141 78.8396 51.9862 78.8535 51.5564 78.8673C51.5524 80.847 51.5484 82.8266 51.5424 84.8042C52.1082 84.7785 52.6721 84.7547 53.2379 84.7329C53.2359 86.1028 53.2319 87.4727 53.2299 88.8426C50.8605 88.9554 48.4931 89.096 46.1277 89.2603C46.1317 87.8686 46.1357 86.475 46.1377 85.0833C46.7015 85.0497 47.2674 85.018 47.8333 84.9883C47.8473 79.287 47.8613 73.5838 47.8753 67.8825C47.3114 67.8884 46.7475 67.8964 46.1837 67.9023C46.1857 66.5106 46.1897 65.117 46.1937 63.7253ZM56.2252 67.8033C54.6756 67.8132 53.128 67.8271 51.5783 67.8409C51.5723 70.1412 51.5683 72.4415 51.5624 74.7418C53.112 74.7042 54.6616 74.6726 56.2112 74.6468C56.2172 72.3663 56.2212 70.0858 56.2252 67.8033Z" fill="#17314F"/>
<path d="M62.1897 63.7114C64.5511 63.7114 66.9146 63.7094 69.276 63.7094C69.276 65.0595 69.276 66.4096 69.276 67.7597C68.7121 67.7597 68.1463 67.7597 67.5824 67.7597C67.5824 73.3145 67.5804 78.8693 67.5804 84.424C69.134 84.4201 70.6856 84.424 72.2372 84.4399C72.2372 82.5137 72.2352 80.5856 72.2352 78.6594C73.4729 78.6673 74.7086 78.6812 75.9463 78.697C75.9503 81.9832 75.9523 85.2693 75.9563 88.5555C71.3615 88.4526 66.7626 88.4466 62.1677 88.5397C62.1697 87.1856 62.1697 85.8315 62.1717 84.4775C62.7376 84.4676 63.3034 84.4597 63.8693 84.4518C63.8733 78.8891 63.8773 73.3283 63.8813 67.7656C63.3174 67.7676 62.7536 67.7696 62.1877 67.7716C62.1857 66.4175 62.1877 65.0654 62.1897 63.7114Z" fill="#17314F"/>
<path d="M77.0861 84.5152C77.5999 84.5271 78.1158 84.539 78.6297 84.5529C80.3213 77.65 82.0068 70.7174 83.6904 63.7175C84.8102 63.7194 85.9299 63.7194 87.0496 63.7214C88.7492 70.7708 90.4528 77.8994 92.1583 85.1408C92.7782 85.1784 93.398 85.218 94.0179 85.2596C94.0219 86.6631 94.0259 88.0667 94.0299 89.4702C91.6005 89.2802 89.1711 89.1159 86.7397 88.9793C86.7357 87.6015 86.7337 86.2256 86.7297 84.8478C87.3415 84.8775 87.9534 84.9072 88.5652 84.9389C88.4233 84.3707 88.2813 83.8026 88.1413 83.2364C86.3058 83.1513 84.4702 83.0761 82.6347 83.0147C82.5047 83.565 82.3728 84.1134 82.2428 84.6617C82.8926 84.6855 83.5445 84.7093 84.1943 84.735C84.1963 86.1049 84.2003 87.4748 84.2023 88.8447C81.8329 88.7318 79.4635 88.6427 77.0941 88.5814C77.0901 87.2273 77.0881 85.8713 77.0861 84.5152ZM85.424 71.436C84.8102 73.9659 84.1943 76.486 83.5805 78.9981C84.7822 79.0317 85.9839 79.0713 87.1856 79.1129C86.5997 76.5434 86.0119 73.9857 85.424 71.436Z" fill="#17314F"/>
<path d="M92.4804 67.9204C92.4764 66.5228 92.4724 65.1251 92.4684 63.7275C94.9358 63.7315 97.4052 63.7355 99.8726 63.7394C99.8766 65.1707 99.8806 66.6019 99.8846 68.0332C99.2787 68.0233 98.6709 68.0114 98.065 68.0015C98.9568 70.0346 99.8486 72.0855 100.74 74.1601C101.59 72.1567 102.442 70.1375 103.292 68.0946C102.762 68.0847 102.232 68.0748 101.702 68.0649C101.698 66.6237 101.694 65.1826 101.69 63.7414C103.994 63.7454 106.295 63.7513 108.598 63.7572C108.602 65.24 108.606 66.7227 108.608 68.2054C108.151 68.1955 107.693 68.1856 107.235 68.1757C105.713 71.7667 104.193 75.2865 102.674 78.7488C102.68 81.1422 102.688 83.5355 102.694 85.9289C103.258 85.9784 103.822 86.0298 104.385 86.0833C104.389 87.5383 104.393 88.9953 104.397 90.4503C102.038 90.189 99.6766 89.9514 97.3132 89.7416C97.3092 88.3242 97.3052 86.9048 97.3012 85.4874C97.8651 85.529 98.4289 85.5725 98.9948 85.6181C98.9888 83.2762 98.9808 80.9363 98.9748 78.5944C97.3572 74.9816 95.7396 71.4342 94.122 67.9402C93.5741 67.9342 93.0282 67.9263 92.4804 67.9204Z" fill="#17314F"/>
<path d="M109.732 66.1444C110.4 65.3605 111.068 64.5666 111.736 63.7689C114.487 63.7768 117.24 63.7847 119.992 63.7926C120.687 64.6577 121.383 65.5327 122.077 66.4176C122.077 68.2665 122.077 70.1155 122.077 71.9664C120.845 71.9051 119.614 71.8476 118.382 71.7902C118.38 70.6777 118.38 69.5671 118.378 68.4546C116.73 68.4091 115.083 68.3655 113.433 68.3239C113.437 70.5332 113.441 72.7444 113.445 74.9537C115.621 75.0803 117.796 75.215 119.97 75.3575C120.671 76.3037 121.375 77.2619 122.075 78.2339C122.075 81.9318 122.077 85.6317 122.077 89.3296C121.179 90.3926 120.283 91.4398 119.386 92.4752C117.004 92.0971 114.619 91.7447 112.231 91.422C111.414 90.3273 110.596 89.2464 109.778 88.1794C109.774 86.566 109.77 84.9527 109.766 83.3393C110.998 83.4521 112.229 83.5729 113.459 83.6956C113.461 84.8101 113.463 85.9266 113.465 87.0431C115.109 87.2352 116.752 87.4391 118.394 87.6548C118.392 85.0615 118.39 82.4683 118.386 79.8769C116.212 79.6829 114.039 79.5028 111.864 79.3365C111.16 78.4239 110.454 77.5212 109.75 76.6264C109.748 73.1304 109.74 69.6364 109.732 66.1444Z" fill="#17314F"/>
<path d="M42.9524 58.2699V56.6961H43.6782V50.2208H42.9524V48.647H47.8692L48.8529 49.5992V52.1905L48.1491 52.8873L48.8529 53.6059V57.2721L47.8532 58.2679H42.9524V58.2699ZM45.2698 50.2208V52.2221H47.2633V50.2208H45.2698ZM47.2633 53.8058H45.2698V56.6941H47.2633V53.8058Z" fill="#C62332"/>
<path d="M49.3868 56.695H50.0487L52.2341 48.6459H53.6758L55.8452 56.695H56.6431V58.2688H53.5178V56.695H54.3036L54.1237 56.0575H51.7643L51.5943 56.695H52.4301V58.2688H49.3868V56.695ZM52.97 51.5955L52.1722 54.5055H53.7178L52.97 51.5955Z" fill="#C62332"/>
<path d="M57.1749 48.6479H62.2457L63.0755 49.4318V53.5751L62.2457 54.4303H61.7218L62.8855 56.697H63.5574V58.2708H61.9458L60.0442 54.4303H59.4924V56.697H60.2182V58.2708H57.1749V56.697H57.9007V50.2217H57.1749V48.6479ZM61.4839 50.2217H59.4904V52.8565H61.4839V50.2217Z" fill="#C62332"/>
<path d="M64.0892 49.4852L64.953 48.6459H68.4981L69.3939 49.511V51.3441H67.8043V50.2197H65.6788V52.5121H68.4861L69.3939 53.4148V57.083L68.2302 58.2668H65.143L64.0892 57.2394V55.5389H65.6788V56.697H67.8043V54.074H64.997L64.0892 53.1752V49.4852Z" fill="#C62332"/>
<path d="M69.9238 52.0825V48.6479H76.5502V52.0825H75.0146V50.2217H74.0308V56.697H74.7566V58.2708H71.7134V56.697H72.4392V50.2217H71.4555V52.0825H69.9238Z" fill="#C62332"/>
<path d="M77.084 57.2314V49.6852L78.1157 48.6459H81.235L82.2567 49.6852V57.2314L81.213 58.2707H78.0597L77.084 57.2314ZM80.6691 50.2216H78.6756V56.697H80.6691V50.2216Z" fill="#C62332"/>
<path d="M82.7926 57.2314V49.6852L83.8243 48.6459H86.9436L87.9653 49.6852V57.2314L86.9216 58.2707H83.7684L82.7926 57.2314ZM86.3757 50.2216H84.3822V56.697H86.3757V50.2216Z" fill="#C62332"/>
<path d="M88.4993 48.6479H91.5425V50.2217H90.8167V56.697H92.8102V54.4521H94.3998V58.2708H88.4993V56.697H89.2251V50.2217H88.4993V48.6479Z" fill="#C62332"/>
<path d="M51.1384 44.4378C53.643 44.4378 55.6733 42.4276 55.6733 39.948C55.6733 37.4684 53.643 35.4583 51.1384 35.4583C48.6339 35.4583 46.6035 37.4684 46.6035 39.948C46.6035 42.4276 48.6339 44.4378 51.1384 44.4378Z" fill="#17314F"/>
<path d="M66.6165 44.4378C69.1211 44.4378 71.1514 42.4276 71.1514 39.948C71.1514 37.4684 69.1211 35.4583 66.6165 35.4583C64.112 35.4583 62.0817 37.4684 62.0817 39.948C62.0817 42.4276 64.112 44.4378 66.6165 44.4378Z" fill="#17314F"/>
<path d="M82.0969 44.4378C84.6014 44.4378 86.6318 42.4276 86.6318 39.948C86.6318 37.4684 84.6014 35.4583 82.0969 35.4583C79.5923 35.4583 77.562 37.4684 77.562 39.948C77.562 42.4276 79.5923 44.4378 82.0969 44.4378Z" fill="#17314F"/>
<path d="M66.6166 26.3895C70.3248 26.3895 73.3309 23.4133 73.3309 19.742C73.3309 16.0707 70.3248 13.0945 66.6166 13.0945C62.9083 13.0945 59.9022 16.0707 59.9022 19.742C59.9022 23.4133 62.9083 26.3895 66.6166 26.3895Z" fill="#17314F"/>
<path d="M64.4412 19.33V16.5546L65.167 15.8083H65.9029V15.2797H67.2685V15.8083H68.0583L68.7941 16.5546V18.1026H67.4565V17.1604H65.7889V18.7935H68.0223L68.7941 19.5676V22.343L67.8144 23.3486H67.2665V24.4037H65.9008V23.3486H65.307L64.4392 22.4934V21.0285H65.7869V22.0441H67.4545V20.104H65.193L64.4412 19.33Z" fill="white"/>
<path d="M49.6708 39.6706V37.8018L50.1607 37.299H50.6565V36.9446H51.5763V37.299H52.1082L52.6041 37.8018V38.8431H51.7043V38.2096H50.5806V39.3103H52.0842L52.6041 39.8309V41.6997L51.9442 42.3767H51.5763V43.0874H50.6565V42.3767H50.2566L49.6708 41.8006V40.8148H50.5786V41.4977H51.7023V40.1932H50.1787L49.6708 39.6706Z" fill="white"/>
<path d="M65.1509 39.6706V37.8018L65.6408 37.299H66.1366V36.9446H67.0564V37.299H67.5883L68.0842 37.8018V38.8431H67.1844V38.2096H66.0607V39.3103H67.5643L68.0842 39.8309V41.6997L67.4243 42.3767H67.0564V43.0874H66.1366V42.3767H65.7367L65.1509 41.8006V40.8148H66.0587V41.4977H67.1824V40.1932H65.6588L65.1509 39.6706Z" fill="white"/>
<path d="M80.6311 39.6706V37.8018L81.121 37.299H81.6169V36.9446H82.5366V37.299H83.0685L83.5644 37.8018V38.8431H82.6646V38.2096H81.5409V39.3103H83.0445L83.5644 39.8309V41.6997L82.9045 42.3767H82.5366V43.0874H81.6169V42.3767H81.217L80.6311 41.8006V40.8148H81.5389V41.4977H82.6626V40.1932H81.139L80.6311 39.6706Z" fill="white"/>
<path d="M82.5566 34.5865H81.7568V33.086C81.7568 32.4684 81.249 31.9655 80.6251 31.9655H68.828C68.0762 31.9655 67.3884 31.53 67.0745 30.853L66.6486 29.9384L66.2227 30.853C65.9087 31.528 65.2189 31.9655 64.4691 31.9655H52.672C52.0482 31.9655 51.5403 32.4684 51.5403 33.086V34.5865H50.7405V33.086C50.7405 32.0309 51.6063 31.1737 52.672 31.1737H64.4691C64.909 31.1737 65.3129 30.9183 65.4968 30.5224L66.6486 28.0499L67.8003 30.5224C67.9842 30.9183 68.3881 31.1737 68.828 31.1737H80.6251C81.6909 31.1737 82.5566 32.0309 82.5566 33.086V34.5865Z" fill="#C62232"/>
</g>
<defs>
<filter id="filter0_d" x="0" y="0" width="146" height="146" filterUnits="userSpaceOnUse" color-interpolation-filters="sRGB">
<feFlood flood-opacity="0" result="BackgroundImageFix"/>
<feColorMatrix in="SourceAlpha" type="matrix" values="0 0 0 0 0 0 0 0 0 0 0 0 0 0 0 0 0 0 127 0"/>
<feOffset dx="4" dy="4"/>
<feGaussianBlur stdDeviation="4"/>
<feColorMatrix type="matrix" values="0 0 0 0 0.513726 0 0 0 0 0.0862745 0 0 0 0 0.133333 0 0 0 0.2 0"/>
<feBlend mode="normal" in2="BackgroundImageFix" result="effect1_dropShadow"/>
<feBlend mode="normal" in="SourceGraphic" in2="effect1_dropShadow" result="shape"/>
</filter>
</defs>
</svg>
